<?xml version="1.0" encoding="utf-8" standalone="no"?>
<!DOCTYPE svg PUBLIC "-//W3C//DTD SVG 1.1//EN"
  "http://www.w3.org/Graphics/SVG/1.1/DTD/svg11.dtd">
<svg xmlns:xlink="http://www.w3.org/1999/xlink" width="460.8pt" height="345.6pt" viewBox="0 0 460.8 345.6" xmlns="http://www.w3.org/2000/svg" version="1.1">
 <metadata>
  <rdf:RDF xmlns:dc="http://purl.org/dc/elements/1.1/" xmlns:cc="http://creativecommons.org/ns#" xmlns:rdf="http://www.w3.org/1999/02/22-rdf-syntax-ns#">
   <cc:Work>
    <dc:type rdf:resource="http://purl.org/dc/dcmitype/StillImage"/>
    <dc:date>2024-10-12T19:57:52.832003</dc:date>
    <dc:format>image/svg+xml</dc:format>
    <dc:creator>
     <cc:Agent>
      <dc:title>Matplotlib v3.9.2, https://matplotlib.org/</dc:title>
     </cc:Agent>
    </dc:creator>
   </cc:Work>
  </rdf:RDF>
 </metadata>
 <defs>
  <style type="text/css">*{stroke-linejoin: round; stroke-linecap: butt}</style>
 </defs>
 <g id="figure_1">
  <g id="patch_1">
   <path d="M 0 345.6 
L 460.8 345.6 
L 460.8 0 
L 0 0 
z
" style="fill: #ffffff"/>
  </g>
  <g id="axes_1">
   <g id="patch_2">
    <path d="M 57.6 307.584 
L 414.72 307.584 
L 414.72 41.472 
L 57.6 41.472 
z
" style="fill: #ffffff"/>
   </g>
   <g id="matplotlib.axis_1">
    <g id="xtick_1">
     <g id="line2d_1">
      <defs>
       <path id="mcc88df320d" d="M 0 0 
L 0 3.5 
" style="stroke: #000000; stroke-width: 0.8"/>
      </defs>
      <g>
       <use xlink:href="#mcc88df320d" x="57.6" y="307.584" style="stroke: #000000; stroke-width: 0.8"/>
      </g>
     </g>
     <g id="text_1">
      <!-- 0 -->
      <g transform="translate(54.41875 322.182437) scale(0.1 -0.1)">
       <defs>
        <path id="DejaVuSans-30" d="M 2034 4250 
Q 1547 4250 1301 3770 
Q 1056 3291 1056 2328 
Q 1056 1369 1301 889 
Q 1547 409 2034 409 
Q 2525 409 2770 889 
Q 3016 1369 3016 2328 
Q 3016 3291 2770 3770 
Q 2525 4250 2034 4250 
z
M 2034 4750 
Q 2819 4750 3233 4129 
Q 3647 3509 3647 2328 
Q 3647 1150 3233 529 
Q 2819 -91 2034 -91 
Q 1250 -91 836 529 
Q 422 1150 422 2328 
Q 422 3509 836 4129 
Q 1250 4750 2034 4750 
z
" transform="scale(0.015625)"/>
       </defs>
       <use xlink:href="#DejaVuSans-30"/>
      </g>
     </g>
    </g>
    <g id="xtick_2">
     <g id="line2d_2">
      <g>
       <use xlink:href="#mcc88df320d" x="102.24" y="307.584" style="stroke: #000000; stroke-width: 0.8"/>
      </g>
     </g>
     <g id="text_2">
      <!-- 50000 -->
      <g transform="translate(86.33375 322.182437) scale(0.1 -0.1)">
       <defs>
        <path id="DejaVuSans-35" d="M 691 4666 
L 3169 4666 
L 3169 4134 
L 1269 4134 
L 1269 2991 
Q 1406 3038 1543 3061 
Q 1681 3084 1819 3084 
Q 2600 3084 3056 2656 
Q 3513 2228 3513 1497 
Q 3513 744 3044 326 
Q 2575 -91 1722 -91 
Q 1428 -91 1123 -41 
Q 819 9 494 109 
L 494 744 
Q 775 591 1075 516 
Q 1375 441 1709 441 
Q 2250 441 2565 725 
Q 2881 1009 2881 1497 
Q 2881 1984 2565 2268 
Q 2250 2553 1709 2553 
Q 1456 2553 1204 2497 
Q 953 2441 691 2322 
L 691 4666 
z
" transform="scale(0.015625)"/>
       </defs>
       <use xlink:href="#DejaVuSans-35"/>
       <use xlink:href="#DejaVuSans-30" x="63.623047"/>
       <use xlink:href="#DejaVuSans-30" x="127.246094"/>
       <use xlink:href="#DejaVuSans-30" x="190.869141"/>
       <use xlink:href="#DejaVuSans-30" x="254.492188"/>
      </g>
     </g>
    </g>
    <g id="xtick_3">
     <g id="line2d_3">
      <g>
       <use xlink:href="#mcc88df320d" x="146.88" y="307.584" style="stroke: #000000; stroke-width: 0.8"/>
      </g>
     </g>
     <g id="text_3">
      <!-- 100000 -->
      <g transform="translate(127.7925 322.182437) scale(0.1 -0.1)">
       <defs>
        <path id="DejaVuSans-31" d="M 794 531 
L 1825 531 
L 1825 4091 
L 703 3866 
L 703 4441 
L 1819 4666 
L 2450 4666 
L 2450 531 
L 3481 531 
L 3481 0 
L 794 0 
L 794 531 
z
" transform="scale(0.015625)"/>
       </defs>
       <use xlink:href="#DejaVuSans-31"/>
       <use xlink:href="#DejaVuSans-30" x="63.623047"/>
       <use xlink:href="#DejaVuSans-30" x="127.246094"/>
       <use xlink:href="#DejaVuSans-30" x="190.869141"/>
       <use xlink:href="#DejaVuSans-30" x="254.492188"/>
       <use xlink:href="#DejaVuSans-30" x="318.115234"/>
      </g>
     </g>
    </g>
    <g id="xtick_4">
     <g id="line2d_4">
      <g>
       <use xlink:href="#mcc88df320d" x="191.52" y="307.584" style="stroke: #000000; stroke-width: 0.8"/>
      </g>
     </g>
     <g id="text_4">
      <!-- 150000 -->
      <g transform="translate(172.4325 322.182437) scale(0.1 -0.1)">
       <use xlink:href="#DejaVuSans-31"/>
       <use xlink:href="#DejaVuSans-35" x="63.623047"/>
       <use xlink:href="#DejaVuSans-30" x="127.246094"/>
       <use xlink:href="#DejaVuSans-30" x="190.869141"/>
       <use xlink:href="#DejaVuSans-30" x="254.492188"/>
       <use xlink:href="#DejaVuSans-30" x="318.115234"/>
      </g>
     </g>
    </g>
    <g id="xtick_5">
     <g id="line2d_5">
      <g>
       <use xlink:href="#mcc88df320d" x="236.16" y="307.584" style="stroke: #000000; stroke-width: 0.8"/>
      </g>
     </g>
     <g id="text_5">
      <!-- 200000 -->
      <g transform="translate(217.0725 322.182437) scale(0.1 -0.1)">
       <defs>
        <path id="DejaVuSans-32" d="M 1228 531 
L 3431 531 
L 3431 0 
L 469 0 
L 469 531 
Q 828 903 1448 1529 
Q 2069 2156 2228 2338 
Q 2531 2678 2651 2914 
Q 2772 3150 2772 3378 
Q 2772 3750 2511 3984 
Q 2250 4219 1831 4219 
Q 1534 4219 1204 4116 
Q 875 4013 500 3803 
L 500 4441 
Q 881 4594 1212 4672 
Q 1544 4750 1819 4750 
Q 2544 4750 2975 4387 
Q 3406 4025 3406 3419 
Q 3406 3131 3298 2873 
Q 3191 2616 2906 2266 
Q 2828 2175 2409 1742 
Q 1991 1309 1228 531 
z
" transform="scale(0.015625)"/>
       </defs>
       <use xlink:href="#DejaVuSans-32"/>
       <use xlink:href="#DejaVuSans-30" x="63.623047"/>
       <use xlink:href="#DejaVuSans-30" x="127.246094"/>
       <use xlink:href="#DejaVuSans-30" x="190.869141"/>
       <use xlink:href="#DejaVuSans-30" x="254.492188"/>
       <use xlink:href="#DejaVuSans-30" x="318.115234"/>
      </g>
     </g>
    </g>
    <g id="xtick_6">
     <g id="line2d_6">
      <g>
       <use xlink:href="#mcc88df320d" x="280.8" y="307.584" style="stroke: #000000; stroke-width: 0.8"/>
      </g>
     </g>
     <g id="text_6">
      <!-- 250000 -->
      <g transform="translate(261.7125 322.182437) scale(0.1 -0.1)">
       <use xlink:href="#DejaVuSans-32"/>
       <use xlink:href="#DejaVuSans-35" x="63.623047"/>
       <use xlink:href="#DejaVuSans-30" x="127.246094"/>
       <use xlink:href="#DejaVuSans-30" x="190.869141"/>
       <use xlink:href="#DejaVuSans-30" x="254.492188"/>
       <use xlink:href="#DejaVuSans-30" x="318.115234"/>
      </g>
     </g>
    </g>
    <g id="xtick_7">
     <g id="line2d_7">
      <g>
       <use xlink:href="#mcc88df320d" x="325.44" y="307.584" style="stroke: #000000; stroke-width: 0.8"/>
      </g>
     </g>
     <g id="text_7">
      <!-- 300000 -->
      <g transform="translate(306.3525 322.182437) scale(0.1 -0.1)">
       <defs>
        <path id="DejaVuSans-33" d="M 2597 2516 
Q 3050 2419 3304 2112 
Q 3559 1806 3559 1356 
Q 3559 666 3084 287 
Q 2609 -91 1734 -91 
Q 1441 -91 1130 -33 
Q 819 25 488 141 
L 488 750 
Q 750 597 1062 519 
Q 1375 441 1716 441 
Q 2309 441 2620 675 
Q 2931 909 2931 1356 
Q 2931 1769 2642 2001 
Q 2353 2234 1838 2234 
L 1294 2234 
L 1294 2753 
L 1863 2753 
Q 2328 2753 2575 2939 
Q 2822 3125 2822 3475 
Q 2822 3834 2567 4026 
Q 2313 4219 1838 4219 
Q 1578 4219 1281 4162 
Q 984 4106 628 3988 
L 628 4550 
Q 988 4650 1302 4700 
Q 1616 4750 1894 4750 
Q 2613 4750 3031 4423 
Q 3450 4097 3450 3541 
Q 3450 3153 3228 2886 
Q 3006 2619 2597 2516 
z
" transform="scale(0.015625)"/>
       </defs>
       <use xlink:href="#DejaVuSans-33"/>
       <use xlink:href="#DejaVuSans-30" x="63.623047"/>
       <use xlink:href="#DejaVuSans-30" x="127.246094"/>
       <use xlink:href="#DejaVuSans-30" x="190.869141"/>
       <use xlink:href="#DejaVuSans-30" x="254.492188"/>
       <use xlink:href="#DejaVuSans-30" x="318.115234"/>
      </g>
     </g>
    </g>
    <g id="xtick_8">
     <g id="line2d_8">
      <g>
       <use xlink:href="#mcc88df320d" x="370.08" y="307.584" style="stroke: #000000; stroke-width: 0.8"/>
      </g>
     </g>
     <g id="text_8">
      <!-- 350000 -->
      <g transform="translate(350.9925 322.182437) scale(0.1 -0.1)">
       <use xlink:href="#DejaVuSans-33"/>
       <use xlink:href="#DejaVuSans-35" x="63.623047"/>
       <use xlink:href="#DejaVuSans-30" x="127.246094"/>
       <use xlink:href="#DejaVuSans-30" x="190.869141"/>
       <use xlink:href="#DejaVuSans-30" x="254.492188"/>
       <use xlink:href="#DejaVuSans-30" x="318.115234"/>
      </g>
     </g>
    </g>
    <g id="xtick_9">
     <g id="line2d_9">
      <g>
       <use xlink:href="#mcc88df320d" x="414.72" y="307.584" style="stroke: #000000; stroke-width: 0.8"/>
      </g>
     </g>
     <g id="text_9">
      <!-- 400000 -->
      <g transform="translate(395.6325 322.182437) scale(0.1 -0.1)">
       <defs>
        <path id="DejaVuSans-34" d="M 2419 4116 
L 825 1625 
L 2419 1625 
L 2419 4116 
z
M 2253 4666 
L 3047 4666 
L 3047 1625 
L 3713 1625 
L 3713 1100 
L 3047 1100 
L 3047 0 
L 2419 0 
L 2419 1100 
L 313 1100 
L 313 1709 
L 2253 4666 
z
" transform="scale(0.015625)"/>
       </defs>
       <use xlink:href="#DejaVuSans-34"/>
       <use xlink:href="#DejaVuSans-30" x="63.623047"/>
       <use xlink:href="#DejaVuSans-30" x="127.246094"/>
       <use xlink:href="#DejaVuSans-30" x="190.869141"/>
       <use xlink:href="#DejaVuSans-30" x="254.492188"/>
       <use xlink:href="#DejaVuSans-30" x="318.115234"/>
      </g>
     </g>
    </g>
    <g id="text_10">
     <!-- Episodes -->
     <g transform="translate(200.5725 340.419625) scale(0.16 -0.16)">
      <defs>
       <path id="DejaVuSans-45" d="M 628 4666 
L 3578 4666 
L 3578 4134 
L 1259 4134 
L 1259 2753 
L 3481 2753 
L 3481 2222 
L 1259 2222 
L 1259 531 
L 3634 531 
L 3634 0 
L 628 0 
L 628 4666 
z
" transform="scale(0.015625)"/>
       <path id="DejaVuSans-70" d="M 1159 525 
L 1159 -1331 
L 581 -1331 
L 581 3500 
L 1159 3500 
L 1159 2969 
Q 1341 3281 1617 3432 
Q 1894 3584 2278 3584 
Q 2916 3584 3314 3078 
Q 3713 2572 3713 1747 
Q 3713 922 3314 415 
Q 2916 -91 2278 -91 
Q 1894 -91 1617 61 
Q 1341 213 1159 525 
z
M 3116 1747 
Q 3116 2381 2855 2742 
Q 2594 3103 2138 3103 
Q 1681 3103 1420 2742 
Q 1159 2381 1159 1747 
Q 1159 1113 1420 752 
Q 1681 391 2138 391 
Q 2594 391 2855 752 
Q 3116 1113 3116 1747 
z
" transform="scale(0.015625)"/>
       <path id="DejaVuSans-69" d="M 603 3500 
L 1178 3500 
L 1178 0 
L 603 0 
L 603 3500 
z
M 603 4863 
L 1178 4863 
L 1178 4134 
L 603 4134 
L 603 4863 
z
" transform="scale(0.015625)"/>
       <path id="DejaVuSans-73" d="M 2834 3397 
L 2834 2853 
Q 2591 2978 2328 3040 
Q 2066 3103 1784 3103 
Q 1356 3103 1142 2972 
Q 928 2841 928 2578 
Q 928 2378 1081 2264 
Q 1234 2150 1697 2047 
L 1894 2003 
Q 2506 1872 2764 1633 
Q 3022 1394 3022 966 
Q 3022 478 2636 193 
Q 2250 -91 1575 -91 
Q 1294 -91 989 -36 
Q 684 19 347 128 
L 347 722 
Q 666 556 975 473 
Q 1284 391 1588 391 
Q 1994 391 2212 530 
Q 2431 669 2431 922 
Q 2431 1156 2273 1281 
Q 2116 1406 1581 1522 
L 1381 1569 
Q 847 1681 609 1914 
Q 372 2147 372 2553 
Q 372 3047 722 3315 
Q 1072 3584 1716 3584 
Q 2034 3584 2315 3537 
Q 2597 3491 2834 3397 
z
" transform="scale(0.015625)"/>
       <path id="DejaVuSans-6f" d="M 1959 3097 
Q 1497 3097 1228 2736 
Q 959 2375 959 1747 
Q 959 1119 1226 758 
Q 1494 397 1959 397 
Q 2419 397 2687 759 
Q 2956 1122 2956 1747 
Q 2956 2369 2687 2733 
Q 2419 3097 1959 3097 
z
M 1959 3584 
Q 2709 3584 3137 3096 
Q 3566 2609 3566 1747 
Q 3566 888 3137 398 
Q 2709 -91 1959 -91 
Q 1206 -91 779 398 
Q 353 888 353 1747 
Q 353 2609 779 3096 
Q 1206 3584 1959 3584 
z
" transform="scale(0.015625)"/>
       <path id="DejaVuSans-64" d="M 2906 2969 
L 2906 4863 
L 3481 4863 
L 3481 0 
L 2906 0 
L 2906 525 
Q 2725 213 2448 61 
Q 2172 -91 1784 -91 
Q 1150 -91 751 415 
Q 353 922 353 1747 
Q 353 2572 751 3078 
Q 1150 3584 1784 3584 
Q 2172 3584 2448 3432 
Q 2725 3281 2906 2969 
z
M 947 1747 
Q 947 1113 1208 752 
Q 1469 391 1925 391 
Q 2381 391 2643 752 
Q 2906 1113 2906 1747 
Q 2906 2381 2643 2742 
Q 2381 3103 1925 3103 
Q 1469 3103 1208 2742 
Q 947 2381 947 1747 
z
" transform="scale(0.015625)"/>
       <path id="DejaVuSans-65" d="M 3597 1894 
L 3597 1613 
L 953 1613 
Q 991 1019 1311 708 
Q 1631 397 2203 397 
Q 2534 397 2845 478 
Q 3156 559 3463 722 
L 3463 178 
Q 3153 47 2828 -22 
Q 2503 -91 2169 -91 
Q 1331 -91 842 396 
Q 353 884 353 1716 
Q 353 2575 817 3079 
Q 1281 3584 2069 3584 
Q 2775 3584 3186 3129 
Q 3597 2675 3597 1894 
z
M 3022 2063 
Q 3016 2534 2758 2815 
Q 2500 3097 2075 3097 
Q 1594 3097 1305 2825 
Q 1016 2553 972 2059 
L 3022 2063 
z
" transform="scale(0.015625)"/>
      </defs>
      <use xlink:href="#DejaVuSans-45"/>
      <use xlink:href="#DejaVuSans-70" x="63.183594"/>
      <use xlink:href="#DejaVuSans-69" x="126.660156"/>
      <use xlink:href="#DejaVuSans-73" x="154.443359"/>
      <use xlink:href="#DejaVuSans-6f" x="206.542969"/>
      <use xlink:href="#DejaVuSans-64" x="267.724609"/>
      <use xlink:href="#DejaVuSans-65" x="331.201172"/>
      <use xlink:href="#DejaVuSans-73" x="392.724609"/>
     </g>
    </g>
   </g>
   <g id="matplotlib.axis_2">
    <g id="ytick_1">
     <g id="line2d_10">
      <defs>
       <path id="m190d29d5f7" d="M 0 0 
L -3.5 0 
" style="stroke: #000000; stroke-width: 0.8"/>
      </defs>
      <g>
       <use xlink:href="#m190d29d5f7" x="57.6" y="291.283155" style="stroke: #000000; stroke-width: 0.8"/>
      </g>
     </g>
     <g id="text_11">
      <!-- −800 -->
      <g transform="translate(23.132812 295.082373) scale(0.1 -0.1)">
       <defs>
        <path id="DejaVuSans-2212" d="M 678 2272 
L 4684 2272 
L 4684 1741 
L 678 1741 
L 678 2272 
z
" transform="scale(0.015625)"/>
        <path id="DejaVuSans-38" d="M 2034 2216 
Q 1584 2216 1326 1975 
Q 1069 1734 1069 1313 
Q 1069 891 1326 650 
Q 1584 409 2034 409 
Q 2484 409 2743 651 
Q 3003 894 3003 1313 
Q 3003 1734 2745 1975 
Q 2488 2216 2034 2216 
z
M 1403 2484 
Q 997 2584 770 2862 
Q 544 3141 544 3541 
Q 544 4100 942 4425 
Q 1341 4750 2034 4750 
Q 2731 4750 3128 4425 
Q 3525 4100 3525 3541 
Q 3525 3141 3298 2862 
Q 3072 2584 2669 2484 
Q 3125 2378 3379 2068 
Q 3634 1759 3634 1313 
Q 3634 634 3220 271 
Q 2806 -91 2034 -91 
Q 1263 -91 848 271 
Q 434 634 434 1313 
Q 434 1759 690 2068 
Q 947 2378 1403 2484 
z
M 1172 3481 
Q 1172 3119 1398 2916 
Q 1625 2713 2034 2713 
Q 2441 2713 2670 2916 
Q 2900 3119 2900 3481 
Q 2900 3844 2670 4047 
Q 2441 4250 2034 4250 
Q 1625 4250 1398 4047 
Q 1172 3844 1172 3481 
z
" transform="scale(0.015625)"/>
       </defs>
       <use xlink:href="#DejaVuSans-2212"/>
       <use xlink:href="#DejaVuSans-38" x="83.789062"/>
       <use xlink:href="#DejaVuSans-30" x="147.412109"/>
       <use xlink:href="#DejaVuSans-30" x="211.035156"/>
      </g>
     </g>
    </g>
    <g id="ytick_2">
     <g id="line2d_11">
      <g>
       <use xlink:href="#m190d29d5f7" x="57.6" y="261.000969" style="stroke: #000000; stroke-width: 0.8"/>
      </g>
     </g>
     <g id="text_12">
      <!-- −700 -->
      <g transform="translate(23.132812 264.800188) scale(0.1 -0.1)">
       <defs>
        <path id="DejaVuSans-37" d="M 525 4666 
L 3525 4666 
L 3525 4397 
L 1831 0 
L 1172 0 
L 2766 4134 
L 525 4134 
L 525 4666 
z
" transform="scale(0.015625)"/>
       </defs>
       <use xlink:href="#DejaVuSans-2212"/>
       <use xlink:href="#DejaVuSans-37" x="83.789062"/>
       <use xlink:href="#DejaVuSans-30" x="147.412109"/>
       <use xlink:href="#DejaVuSans-30" x="211.035156"/>
      </g>
     </g>
    </g>
    <g id="ytick_3">
     <g id="line2d_12">
      <g>
       <use xlink:href="#m190d29d5f7" x="57.6" y="230.718784" style="stroke: #000000; stroke-width: 0.8"/>
      </g>
     </g>
     <g id="text_13">
      <!-- −600 -->
      <g transform="translate(23.132812 234.518003) scale(0.1 -0.1)">
       <defs>
        <path id="DejaVuSans-36" d="M 2113 2584 
Q 1688 2584 1439 2293 
Q 1191 2003 1191 1497 
Q 1191 994 1439 701 
Q 1688 409 2113 409 
Q 2538 409 2786 701 
Q 3034 994 3034 1497 
Q 3034 2003 2786 2293 
Q 2538 2584 2113 2584 
z
M 3366 4563 
L 3366 3988 
Q 3128 4100 2886 4159 
Q 2644 4219 2406 4219 
Q 1781 4219 1451 3797 
Q 1122 3375 1075 2522 
Q 1259 2794 1537 2939 
Q 1816 3084 2150 3084 
Q 2853 3084 3261 2657 
Q 3669 2231 3669 1497 
Q 3669 778 3244 343 
Q 2819 -91 2113 -91 
Q 1303 -91 875 529 
Q 447 1150 447 2328 
Q 447 3434 972 4092 
Q 1497 4750 2381 4750 
Q 2619 4750 2861 4703 
Q 3103 4656 3366 4563 
z
" transform="scale(0.015625)"/>
       </defs>
       <use xlink:href="#DejaVuSans-2212"/>
       <use xlink:href="#DejaVuSans-36" x="83.789062"/>
       <use xlink:href="#DejaVuSans-30" x="147.412109"/>
       <use xlink:href="#DejaVuSans-30" x="211.035156"/>
      </g>
     </g>
    </g>
    <g id="ytick_4">
     <g id="line2d_13">
      <g>
       <use xlink:href="#m190d29d5f7" x="57.6" y="200.436599" style="stroke: #000000; stroke-width: 0.8"/>
      </g>
     </g>
     <g id="text_14">
      <!-- −500 -->
      <g transform="translate(23.132812 204.235817) scale(0.1 -0.1)">
       <use xlink:href="#DejaVuSans-2212"/>
       <use xlink:href="#DejaVuSans-35" x="83.789062"/>
       <use xlink:href="#DejaVuSans-30" x="147.412109"/>
       <use xlink:href="#DejaVuSans-30" x="211.035156"/>
      </g>
     </g>
    </g>
    <g id="ytick_5">
     <g id="line2d_14">
      <g>
       <use xlink:href="#m190d29d5f7" x="57.6" y="170.154413" style="stroke: #000000; stroke-width: 0.8"/>
      </g>
     </g>
     <g id="text_15">
      <!-- −400 -->
      <g transform="translate(23.132812 173.953632) scale(0.1 -0.1)">
       <use xlink:href="#DejaVuSans-2212"/>
       <use xlink:href="#DejaVuSans-34" x="83.789062"/>
       <use xlink:href="#DejaVuSans-30" x="147.412109"/>
       <use xlink:href="#DejaVuSans-30" x="211.035156"/>
      </g>
     </g>
    </g>
    <g id="ytick_6">
     <g id="line2d_15">
      <g>
       <use xlink:href="#m190d29d5f7" x="57.6" y="139.872228" style="stroke: #000000; stroke-width: 0.8"/>
      </g>
     </g>
     <g id="text_16">
      <!-- −300 -->
      <g transform="translate(23.132812 143.671447) scale(0.1 -0.1)">
       <use xlink:href="#DejaVuSans-2212"/>
       <use xlink:href="#DejaVuSans-33" x="83.789062"/>
       <use xlink:href="#DejaVuSans-30" x="147.412109"/>
       <use xlink:href="#DejaVuSans-30" x="211.035156"/>
      </g>
     </g>
    </g>
    <g id="ytick_7">
     <g id="line2d_16">
      <g>
       <use xlink:href="#m190d29d5f7" x="57.6" y="109.590043" style="stroke: #000000; stroke-width: 0.8"/>
      </g>
     </g>
     <g id="text_17">
      <!-- −200 -->
      <g transform="translate(23.132812 113.389262) scale(0.1 -0.1)">
       <use xlink:href="#DejaVuSans-2212"/>
       <use xlink:href="#DejaVuSans-32" x="83.789062"/>
       <use xlink:href="#DejaVuSans-30" x="147.412109"/>
       <use xlink:href="#DejaVuSans-30" x="211.035156"/>
      </g>
     </g>
    </g>
    <g id="ytick_8">
     <g id="line2d_17">
      <g>
       <use xlink:href="#m190d29d5f7" x="57.6" y="79.307858" style="stroke: #000000; stroke-width: 0.8"/>
      </g>
     </g>
     <g id="text_18">
      <!-- −100 -->
      <g transform="translate(23.132812 83.107076) scale(0.1 -0.1)">
       <use xlink:href="#DejaVuSans-2212"/>
       <use xlink:href="#DejaVuSans-31" x="83.789062"/>
       <use xlink:href="#DejaVuSans-30" x="147.412109"/>
       <use xlink:href="#DejaVuSans-30" x="211.035156"/>
      </g>
     </g>
    </g>
    <g id="ytick_9">
     <g id="line2d_18">
      <g>
       <use xlink:href="#m190d29d5f7" x="57.6" y="49.025672" style="stroke: #000000; stroke-width: 0.8"/>
      </g>
     </g>
     <g id="text_19">
      <!-- 0 -->
      <g transform="translate(44.2375 52.824891) scale(0.1 -0.1)">
       <use xlink:href="#DejaVuSans-30"/>
      </g>
     </g>
    </g>
    <g id="text_20">
     <!-- Fitness -->
     <g transform="translate(15.805312 202.2355) rotate(-90) scale(0.16 -0.16)">
      <defs>
       <path id="DejaVuSans-46" d="M 628 4666 
L 3309 4666 
L 3309 4134 
L 1259 4134 
L 1259 2759 
L 3109 2759 
L 3109 2228 
L 1259 2228 
L 1259 0 
L 628 0 
L 628 4666 
z
" transform="scale(0.015625)"/>
       <path id="DejaVuSans-74" d="M 1172 4494 
L 1172 3500 
L 2356 3500 
L 2356 3053 
L 1172 3053 
L 1172 1153 
Q 1172 725 1289 603 
Q 1406 481 1766 481 
L 2356 481 
L 2356 0 
L 1766 0 
Q 1100 0 847 248 
Q 594 497 594 1153 
L 594 3053 
L 172 3053 
L 172 3500 
L 594 3500 
L 594 4494 
L 1172 4494 
z
" transform="scale(0.015625)"/>
       <path id="DejaVuSans-6e" d="M 3513 2113 
L 3513 0 
L 2938 0 
L 2938 2094 
Q 2938 2591 2744 2837 
Q 2550 3084 2163 3084 
Q 1697 3084 1428 2787 
Q 1159 2491 1159 1978 
L 1159 0 
L 581 0 
L 581 3500 
L 1159 3500 
L 1159 2956 
Q 1366 3272 1645 3428 
Q 1925 3584 2291 3584 
Q 2894 3584 3203 3211 
Q 3513 2838 3513 2113 
z
" transform="scale(0.015625)"/>
      </defs>
      <use xlink:href="#DejaVuSans-46"/>
      <use xlink:href="#DejaVuSans-69" x="50.269531"/>
      <use xlink:href="#DejaVuSans-74" x="78.052734"/>
      <use xlink:href="#DejaVuSans-6e" x="117.261719"/>
      <use xlink:href="#DejaVuSans-65" x="180.640625"/>
      <use xlink:href="#DejaVuSans-73" x="242.164062"/>
      <use xlink:href="#DejaVuSans-73" x="294.263672"/>
     </g>
    </g>
   </g>
   <g id="line2d_19">
    <path d="M 57.626784 287.692722 
L 57.929443 287.23218 
L 57.968726 287.125408 
L 58.123181 285.48202 
L 58.603507 285.39185 
L 58.746355 283.768792 
L 58.959734 283.665322 
L 59.090976 281.979882 
L 59.180256 281.882874 
L 59.321318 280.235703 
L 60.380179 280.12987 
L 60.542669 278.124165 
L 60.74712 276.187148 
L 60.927466 274.718048 
L 61.114061 272.411807 
L 61.161379 272.109029 
L 61.304227 270.075904 
L 61.435469 269.969152 
L 61.548854 269.443913 
L 61.728307 267.945222 
L 61.864906 267.731339 
L 61.999718 267.683087 
L 62.061322 267.577654 
L 62.237203 266.198148 
L 62.518435 265.738846 
L 62.74967 265.359494 
L 62.946086 265.230817 
L 63.071078 265.229027 
L 63.204998 261.972738 
L 63.243389 261.968882 
L 63.363917 260.065546 
L 63.821923 259.207168 
L 64.343318 259.098888 
L 64.491523 257.497365 
L 64.571875 257.353464 
L 64.725437 256.590571 
L 64.962029 252.249225 
L 65.198621 232.216115 
L 65.323613 231.701096 
L 65.332541 231.559859 
L 65.537885 218.14606 
L 65.728051 217.902575 
L 65.912861 215.887205 
L 66.12624 215.253755 
L 66.33337 204.1844 
L 66.391402 203.909421 
L 66.525322 203.805209 
L 66.758342 203.694686 
L 66.95208 203.6055 
L 67.342234 203.495714 
L 67.531507 191.894059 
L 68.336813 191.78373 
L 68.551085 191.717768 
L 69.414422 191.700607 
L 69.603696 180.28802 
L 70.026883 180.176957 
L 70.58399 179.982949 
L 70.767014 174.977846 
L 70.801834 174.882818 
L 71.011642 165.830406 
L 71.15449 165.000977 
L 72.022291 164.871159 
L 73.968595 164.818513 
L 74.146262 153.32825 
L 74.94264 153.162397 
L 75.064954 151.561472 
L 75.450643 151.450827 
L 75.512246 150.642633 
L 75.670272 149.479651 
L 75.82919 149.345238 
L 76.061318 149.262139 
L 76.257734 141.959839 
L 76.649674 141.720124 
L 78.042442 141.670467 
L 78.221002 136.901945 
L 78.244214 136.804991 
L 78.422774 134.353482 
L 78.929885 134.275204 
L 79.563773 134.164287 
L 79.780723 134.056372 
L 80.028029 134.0507 
L 80.586922 133.982626 
L 80.777981 122.511637 
L 82.036829 122.235956 
L 82.203782 117.298467 
L 82.213603 117.178896 
L 82.39752 114.788476 
L 82.829635 114.729809 
L 83.255501 114.595511 
L 83.423347 107.382187 
L 83.825107 107.271325 
L 84.08759 107.22698 
L 88.472131 107.145401 
L 88.648013 99.737526 
L 88.77479 99.692125 
L 89.458675 99.642433 
L 91.097856 99.586746 
L 91.270166 94.600362 
L 91.298736 94.472611 
L 91.477296 92.29605 
L 92.485267 92.185075 
L 92.979878 92.122197 
L 93.979814 92.043933 
L 101.303453 91.997877 
L 101.482906 80.555087 
L 102.123043 80.462553 
L 123.207408 80.406998 
L 123.374362 69.059247 
L 124.223414 68.948329 
L 124.584998 68.925086 
L 129.323088 68.847232 
L 129.548074 61.531439 
L 129.735562 61.443487 
L 138.993898 61.332399 
L 139.155494 53.868247 
L 144.094464 53.757228 
L 144.606038 53.735004 
L 414.72 53.732978 
L 414.72 53.732978 
" clip-path="url(#p92900db65c)" style="fill: none; stroke: #0000ff; stroke-width: 1.5; stroke-linecap: square"/>
   </g>
   <g id="line2d_20">
    <path d="M 57.626784 288.059361 
L 57.856234 286.047512 
L 57.978547 285.831286 
L 58.204426 285.720596 
L 58.367808 285.530918 
L 59.61505 285.351658 
L 59.751648 284.087733 
L 59.840928 283.978896 
L 59.992704 283.805562 
L 60.45071 283.699344 
L 60.498922 282.733897 
L 60.645341 280.620026 
L 60.709622 280.510292 
L 60.863184 280.327402 
L 61.01496 280.217616 
L 61.066742 279.563032 
L 61.196198 278.462382 
L 61.376544 278.030558 
L 63.080899 277.920703 
L 63.088934 277.591268 
L 63.284458 273.724281 
L 63.448733 272.293811 
L 63.663005 272.177441 
L 63.881741 272.06835 
L 64.062979 271.903414 
L 64.165651 271.793192 
L 64.395994 271.203172 
L 64.582589 265.556663 
L 64.645978 264.668967 
L 64.830787 260.012377 
L 64.936138 259.912915 
L 65.120054 258.280628 
L 65.230762 258.158516 
L 65.390573 258.102044 
L 65.510208 258.021749 
L 65.639664 257.175567 
L 65.707517 257.057584 
L 65.809296 256.630282 
L 65.929824 256.574556 
L 66.159274 256.448967 
L 66.335155 256.238585 
L 66.705667 256.013809 
L 66.777984 255.945113 
L 66.905654 254.619417 
L 67.03511 254.509712 
L 67.204742 254.261981 
L 67.595789 254.183792 
L 67.78417 246.676016 
L 69.509952 246.566065 
L 69.692976 246.457626 
L 70.305437 246.347035 
L 70.413466 246.090251 
L 70.593811 238.026511 
L 70.719696 237.793044 
L 70.910755 234.834995 
L 71.137526 234.785717 
L 71.469648 234.674933 
L 71.524109 234.440153 
L 71.673206 232.996886 
L 71.756237 232.885598 
L 71.763379 232.611519 
L 71.950867 221.369433 
L 72.000864 221.256261 
L 72.193709 216.208756 
L 72.307094 216.09988 
L 72.364234 215.631322 
L 72.57672 207.520313 
L 72.724032 206.390197 
L 73.176682 205.859037 
L 73.265069 205.74851 
L 73.450771 204.901832 
L 73.834675 204.752276 
L 74.023056 201.721849 
L 74.55695 201.347606 
L 74.747117 199.71109 
L 74.867645 199.688776 
L 75.18816 199.578135 
L 75.464928 199.448751 
L 76.156848 199.251249 
L 76.300589 197.39713 
L 76.519325 197.286483 
L 76.970189 197.001767 
L 77.39784 196.87606 
L 77.587114 196.765088 
L 78.924528 196.655074 
L 79.113802 196.575865 
L 79.52449 196.574771 
L 79.645018 195.215818 
L 79.887859 195.105387 
L 80.154806 194.364194 
L 80.323546 193.337501 
L 80.445859 193.227033 
L 80.469965 192.991073 
L 80.63424 192.451566 
L 80.925293 192.352815 
L 81.115459 184.437526 
L 81.221702 184.120907 
L 81.350266 184.059151 
L 81.47615 183.962213 
L 81.697565 179.96417 
L 81.722563 179.852681 
L 81.881482 179.147237 
L 82.302883 179.010664 
L 82.496621 173.9367 
L 82.557331 173.840494 
L 82.751962 171.576682 
L 84.364358 171.410056 
L 84.80183 171.339324 
L 84.977712 166.639539 
L 85.262515 166.545323 
L 85.432147 165.097322 
L 85.480358 164.795599 
L 85.612493 164.643319 
L 85.689274 164.53228 
L 85.841942 163.932229 
L 86.018717 161.820249 
L 86.495472 161.743966 
L 87.182928 161.63374 
L 87.232032 161.443915 
L 87.424877 149.83375 
L 88.12751 149.722682 
L 88.92121 149.687003 
L 91.538899 149.589469 
L 91.664784 148.038247 
L 91.789776 147.935108 
L 92.681683 147.832677 
L 92.772749 143.932734 
L 92.927203 139.698326 
L 93.102192 139.648778 
L 95.201165 139.566768 
L 95.390438 136.479614 
L 98.230435 136.192285 
L 98.408102 124.914722 
L 103.916678 124.8037 
L 104.801443 124.802329 
L 108.270864 124.789352 
L 108.448531 113.324417 
L 110.357338 113.225065 
L 110.52697 108.288583 
L 110.775168 108.119153 
L 110.966227 105.954434 
L 111.13943 105.84091 
L 112.275072 105.752108 
L 112.450954 98.357865 
L 112.983062 98.246803 
L 113.627664 98.223764 
L 115.227562 98.142324 
L 115.404336 93.193954 
L 115.49183 93.099454 
L 115.675747 90.842312 
L 116.885491 90.672684 
L 118.436285 90.560826 
L 118.627344 83.176253 
L 125.815277 83.065273 
L 126.616118 83.04812 
L 138.161808 82.94432 
L 138.333226 78.015223 
L 138.728736 77.908447 
L 138.922474 75.513891 
L 140.150074 75.485981 
L 414.72 75.415383 
L 414.72 75.415383 
" clip-path="url(#p92900db65c)" style="fill: none; stroke: #ff0000; stroke-width: 1.5; stroke-linecap: square"/>
   </g>
   <g id="line2d_21">
    <path d="M 57.626784 295.488 
L 57.908909 287.32041 
L 58.143715 287.227057 
L 68.174323 287.120577 
L 68.305565 286.304227 
L 68.398416 286.196002 
L 68.560906 285.871328 
L 68.90999 285.761501 
L 69.093014 284.591329 
L 69.226934 283.768923 
L 71.904442 283.658022 
L 72.132998 283.502765 
L 72.305309 282.016878 
L 72.837418 281.910381 
L 72.966874 281.229934 
L 73.101686 281.101067 
L 73.561478 280.251927 
L 74.107872 280.158098 
L 74.293574 278.581197 
L 74.439101 278.488382 
L 74.477491 278.379973 
L 74.825683 276.019718 
L 75.670272 275.90867 
L 75.94079 275.907861 
L 76.583606 275.798146 
L 76.762166 275.670907 
L 77.919235 275.625343 
L 78.191539 262.616512 
L 78.449558 262.260572 
L 78.888816 262.032356 
L 79.061126 261.701449 
L 79.852147 261.677876 
L 80.994038 261.567487 
L 81.242237 261.459066 
L 81.832378 261.3484 
L 81.952013 259.327323 
L 82.128787 248.195843 
L 82.201104 248.085059 
L 82.363594 247.926265 
L 82.631434 247.815745 
L 82.936771 247.698255 
L 83.636726 247.624479 
L 85.035744 247.54893 
L 85.226803 239.458732 
L 85.567853 239.297241 
L 85.691059 237.900402 
L 86.317805 237.685891 
L 86.462438 237.522678 
L 86.693674 237.511222 
L 86.808845 236.096299 
L 87.178464 235.991156 
L 87.369523 233.860885 
L 87.680218 233.749621 
L 87.834672 233.536265 
L 88.319462 233.431588 
L 88.507843 232.683172 
L 88.829251 232.63836 
L 89.36761 232.527292 
L 89.751514 232.465424 
L 90.016675 232.445968 
L 90.205056 221.075159 
L 90.375581 220.981639 
L 91.254096 220.870732 
L 92.168323 220.747869 
L 93.255754 220.473474 
L 93.424493 219.121323 
L 93.693226 219.010879 
L 93.756614 218.796855 
L 93.913747 218.565346 
L 94.108378 218.523197 
L 94.770835 218.412599 
L 95.042246 218.378748 
L 95.194022 218.288597 
L 95.377046 210.970576 
L 95.618102 210.8595 
L 96.310915 210.840469 
L 97.249248 210.809502 
L 97.37424 209.080523 
L 97.446557 208.969491 
L 97.566192 207.715289 
L 97.714397 207.353774 
L 97.773322 207.245558 
L 97.940275 207.032732 
L 98.403638 206.921705 
L 100.169597 206.71062 
L 100.955261 206.609993 
L 101.077574 205.752316 
L 101.105251 205.646398 
L 101.245421 204.947339 
L 101.304346 204.887982 
L 101.434694 203.567873 
L 101.752531 203.544859 
L 102.011443 203.434477 
L 102.180182 203.207175 
L 102.64176 203.13493 
L 103.213152 203.024275 
L 103.287254 202.015812 
L 103.441709 201.020802 
L 103.988102 200.910083 
L 104.273798 200.854922 
L 106.32456 200.743853 
L 106.605792 200.73556 
L 107.238787 200.624944 
L 107.457523 200.598716 
L 109.591315 200.495294 
L 109.749341 198.889692 
L 109.893974 198.668836 
L 110.063606 198.64789 
L 110.100211 198.537745 
L 110.269843 198.310838 
L 110.623392 198.221081 
L 110.778739 196.486079 
L 111.081398 196.375849 
L 111.253709 196.192465 
L 111.300134 195.998238 
L 111.483158 193.781224 
L 111.604579 193.061736 
L 111.801888 184.720742 
L 111.922416 184.599823 
L 112.069728 184.568916 
L 112.160794 184.492484 
L 112.368816 178.458592 
L 112.524163 177.485085 
L 112.599158 177.375634 
L 112.783968 176.929314 
L 114.223162 176.746529 
L 114.414221 176.721079 
L 114.800803 176.700451 
L 114.991862 167.40182 
L 115.13471 166.66192 
L 115.381123 166.360211 
L 115.699853 166.249554 
L 115.873056 166.033859 
L 116.156966 165.857826 
L 116.281066 165.849689 
L 119.637101 165.739095 
L 119.924582 165.38358 
L 120.08975 164.991163 
L 120.394195 164.95476 
L 122.159261 164.843672 
L 124.557322 164.745251 
L 131.56223 164.729281 
L 131.727398 157.353395 
L 131.862211 157.243644 
L 132.016666 157.192732 
L 132.337181 157.185312 
L 137.356502 157.085933 
L 137.532384 150.911027 
L 137.682374 150.799936 
L 137.909146 150.74385 
L 138.143952 150.633369 
L 138.41447 140.716265 
L 138.813552 140.538825 
L 139.006397 138.355707 
L 140.131325 138.256414 
L 143.355226 138.145386 
L 143.869478 138.14192 
L 162.699523 138.039345 
L 162.881654 131.804979 
L 162.992362 131.700607 
L 163.181635 129.402514 
L 163.421798 129.311783 
L 163.778026 129.27311 
L 164.4012 129.162044 
L 164.589581 126.735498 
L 167.74295 126.624393 
L 173.932733 126.608514 
L 174.099686 115.184412 
L 184.421347 115.109319 
L 184.58473 110.606417 
L 184.812394 110.514316 
L 184.995418 107.624966 
L 414.72 107.561898 
L 414.72 107.561898 
" clip-path="url(#p92900db65c)" style="fill: none; stroke: #008000; stroke-width: 1.5; stroke-linecap: square"/>
   </g>
   <g id="line2d_22">
    <path d="M 57.6 53.568 
L 414.72 53.568 
" clip-path="url(#p92900db65c)" style="fill: none; stroke-dasharray: 3.7,1.6; stroke-dashoffset: 0; stroke: #000000"/>
   </g>
   <g id="patch_3">
    <path d="M 57.6 307.584 
L 57.6 41.472 
" style="fill: none; stroke: #000000; stroke-width: 0.8; stroke-linejoin: miter; stroke-linecap: square"/>
   </g>
   <g id="patch_4">
    <path d="M 414.72 307.584 
L 414.72 41.472 
" style="fill: none; stroke: #000000; stroke-width: 0.8; stroke-linejoin: miter; stroke-linecap: square"/>
   </g>
   <g id="patch_5">
    <path d="M 57.6 307.584 
L 414.72 307.584 
" style="fill: none; stroke: #000000; stroke-width: 0.8; stroke-linejoin: miter; stroke-linecap: square"/>
   </g>
   <g id="patch_6">
    <path d="M 57.6 41.472 
L 414.72 41.472 
" style="fill: none; stroke: #000000; stroke-width: 0.8; stroke-linejoin: miter; stroke-linecap: square"/>
   </g>
   <g id="text_21">
    <!-- Effects of adding non-essential behaviors -->
    <g transform="translate(49.902187 35.472) scale(0.18 -0.18)">
     <defs>
      <path id="DejaVuSans-66" d="M 2375 4863 
L 2375 4384 
L 1825 4384 
Q 1516 4384 1395 4259 
Q 1275 4134 1275 3809 
L 1275 3500 
L 2222 3500 
L 2222 3053 
L 1275 3053 
L 1275 0 
L 697 0 
L 697 3053 
L 147 3053 
L 147 3500 
L 697 3500 
L 697 3744 
Q 697 4328 969 4595 
Q 1241 4863 1831 4863 
L 2375 4863 
z
" transform="scale(0.015625)"/>
      <path id="DejaVuSans-63" d="M 3122 3366 
L 3122 2828 
Q 2878 2963 2633 3030 
Q 2388 3097 2138 3097 
Q 1578 3097 1268 2742 
Q 959 2388 959 1747 
Q 959 1106 1268 751 
Q 1578 397 2138 397 
Q 2388 397 2633 464 
Q 2878 531 3122 666 
L 3122 134 
Q 2881 22 2623 -34 
Q 2366 -91 2075 -91 
Q 1284 -91 818 406 
Q 353 903 353 1747 
Q 353 2603 823 3093 
Q 1294 3584 2113 3584 
Q 2378 3584 2631 3529 
Q 2884 3475 3122 3366 
z
" transform="scale(0.015625)"/>
      <path id="DejaVuSans-20" transform="scale(0.015625)"/>
      <path id="DejaVuSans-61" d="M 2194 1759 
Q 1497 1759 1228 1600 
Q 959 1441 959 1056 
Q 959 750 1161 570 
Q 1363 391 1709 391 
Q 2188 391 2477 730 
Q 2766 1069 2766 1631 
L 2766 1759 
L 2194 1759 
z
M 3341 1997 
L 3341 0 
L 2766 0 
L 2766 531 
Q 2569 213 2275 61 
Q 1981 -91 1556 -91 
Q 1019 -91 701 211 
Q 384 513 384 1019 
Q 384 1609 779 1909 
Q 1175 2209 1959 2209 
L 2766 2209 
L 2766 2266 
Q 2766 2663 2505 2880 
Q 2244 3097 1772 3097 
Q 1472 3097 1187 3025 
Q 903 2953 641 2809 
L 641 3341 
Q 956 3463 1253 3523 
Q 1550 3584 1831 3584 
Q 2591 3584 2966 3190 
Q 3341 2797 3341 1997 
z
" transform="scale(0.015625)"/>
      <path id="DejaVuSans-67" d="M 2906 1791 
Q 2906 2416 2648 2759 
Q 2391 3103 1925 3103 
Q 1463 3103 1205 2759 
Q 947 2416 947 1791 
Q 947 1169 1205 825 
Q 1463 481 1925 481 
Q 2391 481 2648 825 
Q 2906 1169 2906 1791 
z
M 3481 434 
Q 3481 -459 3084 -895 
Q 2688 -1331 1869 -1331 
Q 1566 -1331 1297 -1286 
Q 1028 -1241 775 -1147 
L 775 -588 
Q 1028 -725 1275 -790 
Q 1522 -856 1778 -856 
Q 2344 -856 2625 -561 
Q 2906 -266 2906 331 
L 2906 616 
Q 2728 306 2450 153 
Q 2172 0 1784 0 
Q 1141 0 747 490 
Q 353 981 353 1791 
Q 353 2603 747 3093 
Q 1141 3584 1784 3584 
Q 2172 3584 2450 3431 
Q 2728 3278 2906 2969 
L 2906 3500 
L 3481 3500 
L 3481 434 
z
" transform="scale(0.015625)"/>
      <path id="DejaVuSans-2d" d="M 313 2009 
L 1997 2009 
L 1997 1497 
L 313 1497 
L 313 2009 
z
" transform="scale(0.015625)"/>
      <path id="DejaVuSans-6c" d="M 603 4863 
L 1178 4863 
L 1178 0 
L 603 0 
L 603 4863 
z
" transform="scale(0.015625)"/>
      <path id="DejaVuSans-62" d="M 3116 1747 
Q 3116 2381 2855 2742 
Q 2594 3103 2138 3103 
Q 1681 3103 1420 2742 
Q 1159 2381 1159 1747 
Q 1159 1113 1420 752 
Q 1681 391 2138 391 
Q 2594 391 2855 752 
Q 3116 1113 3116 1747 
z
M 1159 2969 
Q 1341 3281 1617 3432 
Q 1894 3584 2278 3584 
Q 2916 3584 3314 3078 
Q 3713 2572 3713 1747 
Q 3713 922 3314 415 
Q 2916 -91 2278 -91 
Q 1894 -91 1617 61 
Q 1341 213 1159 525 
L 1159 0 
L 581 0 
L 581 4863 
L 1159 4863 
L 1159 2969 
z
" transform="scale(0.015625)"/>
      <path id="DejaVuSans-68" d="M 3513 2113 
L 3513 0 
L 2938 0 
L 2938 2094 
Q 2938 2591 2744 2837 
Q 2550 3084 2163 3084 
Q 1697 3084 1428 2787 
Q 1159 2491 1159 1978 
L 1159 0 
L 581 0 
L 581 4863 
L 1159 4863 
L 1159 2956 
Q 1366 3272 1645 3428 
Q 1925 3584 2291 3584 
Q 2894 3584 3203 3211 
Q 3513 2838 3513 2113 
z
" transform="scale(0.015625)"/>
      <path id="DejaVuSans-76" d="M 191 3500 
L 800 3500 
L 1894 563 
L 2988 3500 
L 3597 3500 
L 2284 0 
L 1503 0 
L 191 3500 
z
" transform="scale(0.015625)"/>
      <path id="DejaVuSans-72" d="M 2631 2963 
Q 2534 3019 2420 3045 
Q 2306 3072 2169 3072 
Q 1681 3072 1420 2755 
Q 1159 2438 1159 1844 
L 1159 0 
L 581 0 
L 581 3500 
L 1159 3500 
L 1159 2956 
Q 1341 3275 1631 3429 
Q 1922 3584 2338 3584 
Q 2397 3584 2469 3576 
Q 2541 3569 2628 3553 
L 2631 2963 
z
" transform="scale(0.015625)"/>
     </defs>
     <use xlink:href="#DejaVuSans-45"/>
     <use xlink:href="#DejaVuSans-66" x="63.183594"/>
     <use xlink:href="#DejaVuSans-66" x="98.388672"/>
     <use xlink:href="#DejaVuSans-65" x="133.59375"/>
     <use xlink:href="#DejaVuSans-63" x="195.117188"/>
     <use xlink:href="#DejaVuSans-74" x="250.097656"/>
     <use xlink:href="#DejaVuSans-73" x="289.306641"/>
     <use xlink:href="#DejaVuSans-20" x="341.40625"/>
     <use xlink:href="#DejaVuSans-6f" x="373.193359"/>
     <use xlink:href="#DejaVuSans-66" x="434.375"/>
     <use xlink:href="#DejaVuSans-20" x="469.580078"/>
     <use xlink:href="#DejaVuSans-61" x="501.367188"/>
     <use xlink:href="#DejaVuSans-64" x="562.646484"/>
     <use xlink:href="#DejaVuSans-64" x="626.123047"/>
     <use xlink:href="#DejaVuSans-69" x="689.599609"/>
     <use xlink:href="#DejaVuSans-6e" x="717.382812"/>
     <use xlink:href="#DejaVuSans-67" x="780.761719"/>
     <use xlink:href="#DejaVuSans-20" x="844.238281"/>
     <use xlink:href="#DejaVuSans-6e" x="876.025391"/>
     <use xlink:href="#DejaVuSans-6f" x="939.404297"/>
     <use xlink:href="#DejaVuSans-6e" x="1000.585938"/>
     <use xlink:href="#DejaVuSans-2d" x="1063.964844"/>
     <use xlink:href="#DejaVuSans-65" x="1100.048828"/>
     <use xlink:href="#DejaVuSans-73" x="1161.572266"/>
     <use xlink:href="#DejaVuSans-73" x="1213.671875"/>
     <use xlink:href="#DejaVuSans-65" x="1265.771484"/>
     <use xlink:href="#DejaVuSans-6e" x="1327.294922"/>
     <use xlink:href="#DejaVuSans-74" x="1390.673828"/>
     <use xlink:href="#DejaVuSans-69" x="1429.882812"/>
     <use xlink:href="#DejaVuSans-61" x="1457.666016"/>
     <use xlink:href="#DejaVuSans-6c" x="1518.945312"/>
     <use xlink:href="#DejaVuSans-20" x="1546.728516"/>
     <use xlink:href="#DejaVuSans-62" x="1578.515625"/>
     <use xlink:href="#DejaVuSans-65" x="1641.992188"/>
     <use xlink:href="#DejaVuSans-68" x="1703.515625"/>
     <use xlink:href="#DejaVuSans-61" x="1766.894531"/>
     <use xlink:href="#DejaVuSans-76" x="1828.173828"/>
     <use xlink:href="#DejaVuSans-69" x="1887.353516"/>
     <use xlink:href="#DejaVuSans-6f" x="1915.136719"/>
     <use xlink:href="#DejaVuSans-72" x="1976.318359"/>
     <use xlink:href="#DejaVuSans-73" x="2017.431641"/>
    </g>
   </g>
   <g id="legend_1">
    <g id="patch_7">
     <path d="M 135.915 299.584 
L 403.52 299.584 
Q 406.72 299.584 406.72 296.384 
L 406.72 227.529 
Q 406.72 224.329 403.52 224.329 
L 135.915 224.329 
Q 132.715 224.329 132.715 227.529 
L 132.715 296.384 
Q 132.715 299.584 135.915 299.584 
z
" style="fill: #ffffff; opacity: 0.8; stroke: #cccccc; stroke-linejoin: miter"/>
    </g>
    <g id="line2d_23">
     <path d="M 139.115 237.2865 
L 155.115 237.2865 
L 171.115 237.2865 
" style="fill: none; stroke: #0000ff; stroke-width: 1.5; stroke-linecap: square"/>
    </g>
    <g id="text_22">
     <!-- Necessary behaviors -->
     <g transform="translate(183.915 242.8865) scale(0.16 -0.16)">
      <defs>
       <path id="DejaVuSans-4e" d="M 628 4666 
L 1478 4666 
L 3547 763 
L 3547 4666 
L 4159 4666 
L 4159 0 
L 3309 0 
L 1241 3903 
L 1241 0 
L 628 0 
L 628 4666 
z
" transform="scale(0.015625)"/>
       <path id="DejaVuSans-79" d="M 2059 -325 
Q 1816 -950 1584 -1140 
Q 1353 -1331 966 -1331 
L 506 -1331 
L 506 -850 
L 844 -850 
Q 1081 -850 1212 -737 
Q 1344 -625 1503 -206 
L 1606 56 
L 191 3500 
L 800 3500 
L 1894 763 
L 2988 3500 
L 3597 3500 
L 2059 -325 
z
" transform="scale(0.015625)"/>
      </defs>
      <use xlink:href="#DejaVuSans-4e"/>
      <use xlink:href="#DejaVuSans-65" x="74.804688"/>
      <use xlink:href="#DejaVuSans-63" x="136.328125"/>
      <use xlink:href="#DejaVuSans-65" x="191.308594"/>
      <use xlink:href="#DejaVuSans-73" x="252.832031"/>
      <use xlink:href="#DejaVuSans-73" x="304.931641"/>
      <use xlink:href="#DejaVuSans-61" x="357.03125"/>
      <use xlink:href="#DejaVuSans-72" x="418.310547"/>
      <use xlink:href="#DejaVuSans-79" x="459.423828"/>
      <use xlink:href="#DejaVuSans-20" x="518.603516"/>
      <use xlink:href="#DejaVuSans-62" x="550.390625"/>
      <use xlink:href="#DejaVuSans-65" x="613.867188"/>
      <use xlink:href="#DejaVuSans-68" x="675.390625"/>
      <use xlink:href="#DejaVuSans-61" x="738.769531"/>
      <use xlink:href="#DejaVuSans-76" x="800.048828"/>
      <use xlink:href="#DejaVuSans-69" x="859.228516"/>
      <use xlink:href="#DejaVuSans-6f" x="887.011719"/>
      <use xlink:href="#DejaVuSans-72" x="948.193359"/>
      <use xlink:href="#DejaVuSans-73" x="989.306641"/>
     </g>
    </g>
    <g id="line2d_24">
     <path d="M 139.115 260.7715 
L 155.115 260.7715 
L 171.115 260.7715 
" style="fill: none; stroke: #ff0000; stroke-width: 1.5; stroke-linecap: square"/>
    </g>
    <g id="text_23">
     <!-- 7 non-essential behaviors -->
     <g transform="translate(183.915 266.3715) scale(0.16 -0.16)">
      <use xlink:href="#DejaVuSans-37"/>
      <use xlink:href="#DejaVuSans-20" x="63.623047"/>
      <use xlink:href="#DejaVuSans-6e" x="95.410156"/>
      <use xlink:href="#DejaVuSans-6f" x="158.789062"/>
      <use xlink:href="#DejaVuSans-6e" x="219.970703"/>
      <use xlink:href="#DejaVuSans-2d" x="283.349609"/>
      <use xlink:href="#DejaVuSans-65" x="319.433594"/>
      <use xlink:href="#DejaVuSans-73" x="380.957031"/>
      <use xlink:href="#DejaVuSans-73" x="433.056641"/>
      <use xlink:href="#DejaVuSans-65" x="485.15625"/>
      <use xlink:href="#DejaVuSans-6e" x="546.679688"/>
      <use xlink:href="#DejaVuSans-74" x="610.058594"/>
      <use xlink:href="#DejaVuSans-69" x="649.267578"/>
      <use xlink:href="#DejaVuSans-61" x="677.050781"/>
      <use xlink:href="#DejaVuSans-6c" x="738.330078"/>
      <use xlink:href="#DejaVuSans-20" x="766.113281"/>
      <use xlink:href="#DejaVuSans-62" x="797.900391"/>
      <use xlink:href="#DejaVuSans-65" x="861.376953"/>
      <use xlink:href="#DejaVuSans-68" x="922.900391"/>
      <use xlink:href="#DejaVuSans-61" x="986.279297"/>
      <use xlink:href="#DejaVuSans-76" x="1047.558594"/>
      <use xlink:href="#DejaVuSans-69" x="1106.738281"/>
      <use xlink:href="#DejaVuSans-6f" x="1134.521484"/>
      <use xlink:href="#DejaVuSans-72" x="1195.703125"/>
      <use xlink:href="#DejaVuSans-73" x="1236.816406"/>
     </g>
    </g>
    <g id="line2d_25">
     <path d="M 139.115 284.2565 
L 155.115 284.2565 
L 171.115 284.2565 
" style="fill: none; stroke: #008000; stroke-width: 1.5; stroke-linecap: square"/>
    </g>
    <g id="text_24">
     <!-- 14 non-essential behaviors -->
     <g transform="translate(183.915 289.8565) scale(0.16 -0.16)">
      <use xlink:href="#DejaVuSans-31"/>
      <use xlink:href="#DejaVuSans-34" x="63.623047"/>
      <use xlink:href="#DejaVuSans-20" x="127.246094"/>
      <use xlink:href="#DejaVuSans-6e" x="159.033203"/>
      <use xlink:href="#DejaVuSans-6f" x="222.412109"/>
      <use xlink:href="#DejaVuSans-6e" x="283.59375"/>
      <use xlink:href="#DejaVuSans-2d" x="346.972656"/>
      <use xlink:href="#DejaVuSans-65" x="383.056641"/>
      <use xlink:href="#DejaVuSans-73" x="444.580078"/>
      <use xlink:href="#DejaVuSans-73" x="496.679688"/>
      <use xlink:href="#DejaVuSans-65" x="548.779297"/>
      <use xlink:href="#DejaVuSans-6e" x="610.302734"/>
      <use xlink:href="#DejaVuSans-74" x="673.681641"/>
      <use xlink:href="#DejaVuSans-69" x="712.890625"/>
      <use xlink:href="#DejaVuSans-61" x="740.673828"/>
      <use xlink:href="#DejaVuSans-6c" x="801.953125"/>
      <use xlink:href="#DejaVuSans-20" x="829.736328"/>
      <use xlink:href="#DejaVuSans-62" x="861.523438"/>
      <use xlink:href="#DejaVuSans-65" x="925"/>
      <use xlink:href="#DejaVuSans-68" x="986.523438"/>
      <use xlink:href="#DejaVuSans-61" x="1049.902344"/>
      <use xlink:href="#DejaVuSans-76" x="1111.181641"/>
      <use xlink:href="#DejaVuSans-69" x="1170.361328"/>
      <use xlink:href="#DejaVuSans-6f" x="1198.144531"/>
      <use xlink:href="#DejaVuSans-72" x="1259.326172"/>
      <use xlink:href="#DejaVuSans-73" x="1300.439453"/>
     </g>
    </g>
   </g>
  </g>
 </g>
 <defs>
  <clipPath id="p92900db65c">
   <rect x="57.6" y="41.472" width="357.12" height="266.112"/>
  </clipPath>
 </defs>
</svg>
