<?xml version="1.0" encoding="utf-8" standalone="no"?>
<!DOCTYPE svg PUBLIC "-//W3C//DTD SVG 1.1//EN"
  "http://www.w3.org/Graphics/SVG/1.1/DTD/svg11.dtd">
<svg xmlns:xlink="http://www.w3.org/1999/xlink" width="460.8pt" height="345.6pt" viewBox="0 0 460.8 345.6" xmlns="http://www.w3.org/2000/svg" version="1.1">
 <metadata>
  <rdf:RDF xmlns:dc="http://purl.org/dc/elements/1.1/" xmlns:cc="http://creativecommons.org/ns#" xmlns:rdf="http://www.w3.org/1999/02/22-rdf-syntax-ns#">
   <cc:Work>
    <dc:type rdf:resource="http://purl.org/dc/dcmitype/StillImage"/>
    <dc:date>2024-10-11T19:01:01.539297</dc:date>
    <dc:format>image/svg+xml</dc:format>
    <dc:creator>
     <cc:Agent>
      <dc:title>Matplotlib v3.9.2, https://matplotlib.org/</dc:title>
     </cc:Agent>
    </dc:creator>
   </cc:Work>
  </rdf:RDF>
 </metadata>
 <defs>
  <style type="text/css">*{stroke-linejoin: round; stroke-linecap: butt}</style>
 </defs>
 <g id="figure_1">
  <g id="patch_1">
   <path d="M 0 345.6 
L 460.8 345.6 
L 460.8 0 
L 0 0 
z
" style="fill: #ffffff"/>
  </g>
  <g id="axes_1">
   <g id="patch_2">
    <path d="M 57.6 307.584 
L 414.72 307.584 
L 414.72 41.472 
L 57.6 41.472 
z
" style="fill: #ffffff"/>
   </g>
   <g id="matplotlib.axis_1">
    <g id="xtick_1">
     <g id="line2d_1">
      <defs>
       <path id="m4b8e0f1437" d="M 0 0 
L 0 3.5 
" style="stroke: #000000; stroke-width: 0.8"/>
      </defs>
      <g>
       <use xlink:href="#m4b8e0f1437" x="57.6" y="307.584" style="stroke: #000000; stroke-width: 0.8"/>
      </g>
     </g>
     <g id="text_1">
      <!-- 0 -->
      <g transform="translate(54.41875 322.182437) scale(0.1 -0.1)">
       <defs>
        <path id="DejaVuSans-30" d="M 2034 4250 
Q 1547 4250 1301 3770 
Q 1056 3291 1056 2328 
Q 1056 1369 1301 889 
Q 1547 409 2034 409 
Q 2525 409 2770 889 
Q 3016 1369 3016 2328 
Q 3016 3291 2770 3770 
Q 2525 4250 2034 4250 
z
M 2034 4750 
Q 2819 4750 3233 4129 
Q 3647 3509 3647 2328 
Q 3647 1150 3233 529 
Q 2819 -91 2034 -91 
Q 1250 -91 836 529 
Q 422 1150 422 2328 
Q 422 3509 836 4129 
Q 1250 4750 2034 4750 
z
" transform="scale(0.015625)"/>
       </defs>
       <use xlink:href="#DejaVuSans-30"/>
      </g>
     </g>
    </g>
    <g id="xtick_2">
     <g id="line2d_2">
      <g>
       <use xlink:href="#m4b8e0f1437" x="102.24" y="307.584" style="stroke: #000000; stroke-width: 0.8"/>
      </g>
     </g>
     <g id="text_2">
      <!-- 50000 -->
      <g transform="translate(86.33375 322.182437) scale(0.1 -0.1)">
       <defs>
        <path id="DejaVuSans-35" d="M 691 4666 
L 3169 4666 
L 3169 4134 
L 1269 4134 
L 1269 2991 
Q 1406 3038 1543 3061 
Q 1681 3084 1819 3084 
Q 2600 3084 3056 2656 
Q 3513 2228 3513 1497 
Q 3513 744 3044 326 
Q 2575 -91 1722 -91 
Q 1428 -91 1123 -41 
Q 819 9 494 109 
L 494 744 
Q 775 591 1075 516 
Q 1375 441 1709 441 
Q 2250 441 2565 725 
Q 2881 1009 2881 1497 
Q 2881 1984 2565 2268 
Q 2250 2553 1709 2553 
Q 1456 2553 1204 2497 
Q 953 2441 691 2322 
L 691 4666 
z
" transform="scale(0.015625)"/>
       </defs>
       <use xlink:href="#DejaVuSans-35"/>
       <use xlink:href="#DejaVuSans-30" x="63.623047"/>
       <use xlink:href="#DejaVuSans-30" x="127.246094"/>
       <use xlink:href="#DejaVuSans-30" x="190.869141"/>
       <use xlink:href="#DejaVuSans-30" x="254.492188"/>
      </g>
     </g>
    </g>
    <g id="xtick_3">
     <g id="line2d_3">
      <g>
       <use xlink:href="#m4b8e0f1437" x="146.88" y="307.584" style="stroke: #000000; stroke-width: 0.8"/>
      </g>
     </g>
     <g id="text_3">
      <!-- 100000 -->
      <g transform="translate(127.7925 322.182437) scale(0.1 -0.1)">
       <defs>
        <path id="DejaVuSans-31" d="M 794 531 
L 1825 531 
L 1825 4091 
L 703 3866 
L 703 4441 
L 1819 4666 
L 2450 4666 
L 2450 531 
L 3481 531 
L 3481 0 
L 794 0 
L 794 531 
z
" transform="scale(0.015625)"/>
       </defs>
       <use xlink:href="#DejaVuSans-31"/>
       <use xlink:href="#DejaVuSans-30" x="63.623047"/>
       <use xlink:href="#DejaVuSans-30" x="127.246094"/>
       <use xlink:href="#DejaVuSans-30" x="190.869141"/>
       <use xlink:href="#DejaVuSans-30" x="254.492188"/>
       <use xlink:href="#DejaVuSans-30" x="318.115234"/>
      </g>
     </g>
    </g>
    <g id="xtick_4">
     <g id="line2d_4">
      <g>
       <use xlink:href="#m4b8e0f1437" x="191.52" y="307.584" style="stroke: #000000; stroke-width: 0.8"/>
      </g>
     </g>
     <g id="text_4">
      <!-- 150000 -->
      <g transform="translate(172.4325 322.182437) scale(0.1 -0.1)">
       <use xlink:href="#DejaVuSans-31"/>
       <use xlink:href="#DejaVuSans-35" x="63.623047"/>
       <use xlink:href="#DejaVuSans-30" x="127.246094"/>
       <use xlink:href="#DejaVuSans-30" x="190.869141"/>
       <use xlink:href="#DejaVuSans-30" x="254.492188"/>
       <use xlink:href="#DejaVuSans-30" x="318.115234"/>
      </g>
     </g>
    </g>
    <g id="xtick_5">
     <g id="line2d_5">
      <g>
       <use xlink:href="#m4b8e0f1437" x="236.16" y="307.584" style="stroke: #000000; stroke-width: 0.8"/>
      </g>
     </g>
     <g id="text_5">
      <!-- 200000 -->
      <g transform="translate(217.0725 322.182437) scale(0.1 -0.1)">
       <defs>
        <path id="DejaVuSans-32" d="M 1228 531 
L 3431 531 
L 3431 0 
L 469 0 
L 469 531 
Q 828 903 1448 1529 
Q 2069 2156 2228 2338 
Q 2531 2678 2651 2914 
Q 2772 3150 2772 3378 
Q 2772 3750 2511 3984 
Q 2250 4219 1831 4219 
Q 1534 4219 1204 4116 
Q 875 4013 500 3803 
L 500 4441 
Q 881 4594 1212 4672 
Q 1544 4750 1819 4750 
Q 2544 4750 2975 4387 
Q 3406 4025 3406 3419 
Q 3406 3131 3298 2873 
Q 3191 2616 2906 2266 
Q 2828 2175 2409 1742 
Q 1991 1309 1228 531 
z
" transform="scale(0.015625)"/>
       </defs>
       <use xlink:href="#DejaVuSans-32"/>
       <use xlink:href="#DejaVuSans-30" x="63.623047"/>
       <use xlink:href="#DejaVuSans-30" x="127.246094"/>
       <use xlink:href="#DejaVuSans-30" x="190.869141"/>
       <use xlink:href="#DejaVuSans-30" x="254.492188"/>
       <use xlink:href="#DejaVuSans-30" x="318.115234"/>
      </g>
     </g>
    </g>
    <g id="xtick_6">
     <g id="line2d_6">
      <g>
       <use xlink:href="#m4b8e0f1437" x="280.8" y="307.584" style="stroke: #000000; stroke-width: 0.8"/>
      </g>
     </g>
     <g id="text_6">
      <!-- 250000 -->
      <g transform="translate(261.7125 322.182437) scale(0.1 -0.1)">
       <use xlink:href="#DejaVuSans-32"/>
       <use xlink:href="#DejaVuSans-35" x="63.623047"/>
       <use xlink:href="#DejaVuSans-30" x="127.246094"/>
       <use xlink:href="#DejaVuSans-30" x="190.869141"/>
       <use xlink:href="#DejaVuSans-30" x="254.492188"/>
       <use xlink:href="#DejaVuSans-30" x="318.115234"/>
      </g>
     </g>
    </g>
    <g id="xtick_7">
     <g id="line2d_7">
      <g>
       <use xlink:href="#m4b8e0f1437" x="325.44" y="307.584" style="stroke: #000000; stroke-width: 0.8"/>
      </g>
     </g>
     <g id="text_7">
      <!-- 300000 -->
      <g transform="translate(306.3525 322.182437) scale(0.1 -0.1)">
       <defs>
        <path id="DejaVuSans-33" d="M 2597 2516 
Q 3050 2419 3304 2112 
Q 3559 1806 3559 1356 
Q 3559 666 3084 287 
Q 2609 -91 1734 -91 
Q 1441 -91 1130 -33 
Q 819 25 488 141 
L 488 750 
Q 750 597 1062 519 
Q 1375 441 1716 441 
Q 2309 441 2620 675 
Q 2931 909 2931 1356 
Q 2931 1769 2642 2001 
Q 2353 2234 1838 2234 
L 1294 2234 
L 1294 2753 
L 1863 2753 
Q 2328 2753 2575 2939 
Q 2822 3125 2822 3475 
Q 2822 3834 2567 4026 
Q 2313 4219 1838 4219 
Q 1578 4219 1281 4162 
Q 984 4106 628 3988 
L 628 4550 
Q 988 4650 1302 4700 
Q 1616 4750 1894 4750 
Q 2613 4750 3031 4423 
Q 3450 4097 3450 3541 
Q 3450 3153 3228 2886 
Q 3006 2619 2597 2516 
z
" transform="scale(0.015625)"/>
       </defs>
       <use xlink:href="#DejaVuSans-33"/>
       <use xlink:href="#DejaVuSans-30" x="63.623047"/>
       <use xlink:href="#DejaVuSans-30" x="127.246094"/>
       <use xlink:href="#DejaVuSans-30" x="190.869141"/>
       <use xlink:href="#DejaVuSans-30" x="254.492188"/>
       <use xlink:href="#DejaVuSans-30" x="318.115234"/>
      </g>
     </g>
    </g>
    <g id="xtick_8">
     <g id="line2d_8">
      <g>
       <use xlink:href="#m4b8e0f1437" x="370.08" y="307.584" style="stroke: #000000; stroke-width: 0.8"/>
      </g>
     </g>
     <g id="text_8">
      <!-- 350000 -->
      <g transform="translate(350.9925 322.182437) scale(0.1 -0.1)">
       <use xlink:href="#DejaVuSans-33"/>
       <use xlink:href="#DejaVuSans-35" x="63.623047"/>
       <use xlink:href="#DejaVuSans-30" x="127.246094"/>
       <use xlink:href="#DejaVuSans-30" x="190.869141"/>
       <use xlink:href="#DejaVuSans-30" x="254.492188"/>
       <use xlink:href="#DejaVuSans-30" x="318.115234"/>
      </g>
     </g>
    </g>
    <g id="xtick_9">
     <g id="line2d_9">
      <g>
       <use xlink:href="#m4b8e0f1437" x="414.72" y="307.584" style="stroke: #000000; stroke-width: 0.8"/>
      </g>
     </g>
     <g id="text_9">
      <!-- 400000 -->
      <g transform="translate(395.6325 322.182437) scale(0.1 -0.1)">
       <defs>
        <path id="DejaVuSans-34" d="M 2419 4116 
L 825 1625 
L 2419 1625 
L 2419 4116 
z
M 2253 4666 
L 3047 4666 
L 3047 1625 
L 3713 1625 
L 3713 1100 
L 3047 1100 
L 3047 0 
L 2419 0 
L 2419 1100 
L 313 1100 
L 313 1709 
L 2253 4666 
z
" transform="scale(0.015625)"/>
       </defs>
       <use xlink:href="#DejaVuSans-34"/>
       <use xlink:href="#DejaVuSans-30" x="63.623047"/>
       <use xlink:href="#DejaVuSans-30" x="127.246094"/>
       <use xlink:href="#DejaVuSans-30" x="190.869141"/>
       <use xlink:href="#DejaVuSans-30" x="254.492188"/>
       <use xlink:href="#DejaVuSans-30" x="318.115234"/>
      </g>
     </g>
    </g>
    <g id="text_10">
     <!-- Episodes -->
     <g transform="translate(200.5725 340.419625) scale(0.16 -0.16)">
      <defs>
       <path id="DejaVuSans-45" d="M 628 4666 
L 3578 4666 
L 3578 4134 
L 1259 4134 
L 1259 2753 
L 3481 2753 
L 3481 2222 
L 1259 2222 
L 1259 531 
L 3634 531 
L 3634 0 
L 628 0 
L 628 4666 
z
" transform="scale(0.015625)"/>
       <path id="DejaVuSans-70" d="M 1159 525 
L 1159 -1331 
L 581 -1331 
L 581 3500 
L 1159 3500 
L 1159 2969 
Q 1341 3281 1617 3432 
Q 1894 3584 2278 3584 
Q 2916 3584 3314 3078 
Q 3713 2572 3713 1747 
Q 3713 922 3314 415 
Q 2916 -91 2278 -91 
Q 1894 -91 1617 61 
Q 1341 213 1159 525 
z
M 3116 1747 
Q 3116 2381 2855 2742 
Q 2594 3103 2138 3103 
Q 1681 3103 1420 2742 
Q 1159 2381 1159 1747 
Q 1159 1113 1420 752 
Q 1681 391 2138 391 
Q 2594 391 2855 752 
Q 3116 1113 3116 1747 
z
" transform="scale(0.015625)"/>
       <path id="DejaVuSans-69" d="M 603 3500 
L 1178 3500 
L 1178 0 
L 603 0 
L 603 3500 
z
M 603 4863 
L 1178 4863 
L 1178 4134 
L 603 4134 
L 603 4863 
z
" transform="scale(0.015625)"/>
       <path id="DejaVuSans-73" d="M 2834 3397 
L 2834 2853 
Q 2591 2978 2328 3040 
Q 2066 3103 1784 3103 
Q 1356 3103 1142 2972 
Q 928 2841 928 2578 
Q 928 2378 1081 2264 
Q 1234 2150 1697 2047 
L 1894 2003 
Q 2506 1872 2764 1633 
Q 3022 1394 3022 966 
Q 3022 478 2636 193 
Q 2250 -91 1575 -91 
Q 1294 -91 989 -36 
Q 684 19 347 128 
L 347 722 
Q 666 556 975 473 
Q 1284 391 1588 391 
Q 1994 391 2212 530 
Q 2431 669 2431 922 
Q 2431 1156 2273 1281 
Q 2116 1406 1581 1522 
L 1381 1569 
Q 847 1681 609 1914 
Q 372 2147 372 2553 
Q 372 3047 722 3315 
Q 1072 3584 1716 3584 
Q 2034 3584 2315 3537 
Q 2597 3491 2834 3397 
z
" transform="scale(0.015625)"/>
       <path id="DejaVuSans-6f" d="M 1959 3097 
Q 1497 3097 1228 2736 
Q 959 2375 959 1747 
Q 959 1119 1226 758 
Q 1494 397 1959 397 
Q 2419 397 2687 759 
Q 2956 1122 2956 1747 
Q 2956 2369 2687 2733 
Q 2419 3097 1959 3097 
z
M 1959 3584 
Q 2709 3584 3137 3096 
Q 3566 2609 3566 1747 
Q 3566 888 3137 398 
Q 2709 -91 1959 -91 
Q 1206 -91 779 398 
Q 353 888 353 1747 
Q 353 2609 779 3096 
Q 1206 3584 1959 3584 
z
" transform="scale(0.015625)"/>
       <path id="DejaVuSans-64" d="M 2906 2969 
L 2906 4863 
L 3481 4863 
L 3481 0 
L 2906 0 
L 2906 525 
Q 2725 213 2448 61 
Q 2172 -91 1784 -91 
Q 1150 -91 751 415 
Q 353 922 353 1747 
Q 353 2572 751 3078 
Q 1150 3584 1784 3584 
Q 2172 3584 2448 3432 
Q 2725 3281 2906 2969 
z
M 947 1747 
Q 947 1113 1208 752 
Q 1469 391 1925 391 
Q 2381 391 2643 752 
Q 2906 1113 2906 1747 
Q 2906 2381 2643 2742 
Q 2381 3103 1925 3103 
Q 1469 3103 1208 2742 
Q 947 2381 947 1747 
z
" transform="scale(0.015625)"/>
       <path id="DejaVuSans-65" d="M 3597 1894 
L 3597 1613 
L 953 1613 
Q 991 1019 1311 708 
Q 1631 397 2203 397 
Q 2534 397 2845 478 
Q 3156 559 3463 722 
L 3463 178 
Q 3153 47 2828 -22 
Q 2503 -91 2169 -91 
Q 1331 -91 842 396 
Q 353 884 353 1716 
Q 353 2575 817 3079 
Q 1281 3584 2069 3584 
Q 2775 3584 3186 3129 
Q 3597 2675 3597 1894 
z
M 3022 2063 
Q 3016 2534 2758 2815 
Q 2500 3097 2075 3097 
Q 1594 3097 1305 2825 
Q 1016 2553 972 2059 
L 3022 2063 
z
" transform="scale(0.015625)"/>
      </defs>
      <use xlink:href="#DejaVuSans-45"/>
      <use xlink:href="#DejaVuSans-70" x="63.183594"/>
      <use xlink:href="#DejaVuSans-69" x="126.660156"/>
      <use xlink:href="#DejaVuSans-73" x="154.443359"/>
      <use xlink:href="#DejaVuSans-6f" x="206.542969"/>
      <use xlink:href="#DejaVuSans-64" x="267.724609"/>
      <use xlink:href="#DejaVuSans-65" x="331.201172"/>
      <use xlink:href="#DejaVuSans-73" x="392.724609"/>
     </g>
    </g>
   </g>
   <g id="matplotlib.axis_2">
    <g id="ytick_1">
     <g id="line2d_10">
      <defs>
       <path id="m4fdd09475b" d="M 0 0 
L -3.5 0 
" style="stroke: #000000; stroke-width: 0.8"/>
      </defs>
      <g>
       <use xlink:href="#m4fdd09475b" x="57.6" y="299.220276" style="stroke: #000000; stroke-width: 0.8"/>
      </g>
     </g>
     <g id="text_11">
      <!-- −800 -->
      <g transform="translate(23.132812 303.019495) scale(0.1 -0.1)">
       <defs>
        <path id="DejaVuSans-2212" d="M 678 2272 
L 4684 2272 
L 4684 1741 
L 678 1741 
L 678 2272 
z
" transform="scale(0.015625)"/>
        <path id="DejaVuSans-38" d="M 2034 2216 
Q 1584 2216 1326 1975 
Q 1069 1734 1069 1313 
Q 1069 891 1326 650 
Q 1584 409 2034 409 
Q 2484 409 2743 651 
Q 3003 894 3003 1313 
Q 3003 1734 2745 1975 
Q 2488 2216 2034 2216 
z
M 1403 2484 
Q 997 2584 770 2862 
Q 544 3141 544 3541 
Q 544 4100 942 4425 
Q 1341 4750 2034 4750 
Q 2731 4750 3128 4425 
Q 3525 4100 3525 3541 
Q 3525 3141 3298 2862 
Q 3072 2584 2669 2484 
Q 3125 2378 3379 2068 
Q 3634 1759 3634 1313 
Q 3634 634 3220 271 
Q 2806 -91 2034 -91 
Q 1263 -91 848 271 
Q 434 634 434 1313 
Q 434 1759 690 2068 
Q 947 2378 1403 2484 
z
M 1172 3481 
Q 1172 3119 1398 2916 
Q 1625 2713 2034 2713 
Q 2441 2713 2670 2916 
Q 2900 3119 2900 3481 
Q 2900 3844 2670 4047 
Q 2441 4250 2034 4250 
Q 1625 4250 1398 4047 
Q 1172 3844 1172 3481 
z
" transform="scale(0.015625)"/>
       </defs>
       <use xlink:href="#DejaVuSans-2212"/>
       <use xlink:href="#DejaVuSans-38" x="83.789062"/>
       <use xlink:href="#DejaVuSans-30" x="147.412109"/>
       <use xlink:href="#DejaVuSans-30" x="211.035156"/>
      </g>
     </g>
    </g>
    <g id="ytick_2">
     <g id="line2d_11">
      <g>
       <use xlink:href="#m4fdd09475b" x="57.6" y="267.926992" style="stroke: #000000; stroke-width: 0.8"/>
      </g>
     </g>
     <g id="text_12">
      <!-- −700 -->
      <g transform="translate(23.132812 271.726211) scale(0.1 -0.1)">
       <defs>
        <path id="DejaVuSans-37" d="M 525 4666 
L 3525 4666 
L 3525 4397 
L 1831 0 
L 1172 0 
L 2766 4134 
L 525 4134 
L 525 4666 
z
" transform="scale(0.015625)"/>
       </defs>
       <use xlink:href="#DejaVuSans-2212"/>
       <use xlink:href="#DejaVuSans-37" x="83.789062"/>
       <use xlink:href="#DejaVuSans-30" x="147.412109"/>
       <use xlink:href="#DejaVuSans-30" x="211.035156"/>
      </g>
     </g>
    </g>
    <g id="ytick_3">
     <g id="line2d_12">
      <g>
       <use xlink:href="#m4fdd09475b" x="57.6" y="236.633709" style="stroke: #000000; stroke-width: 0.8"/>
      </g>
     </g>
     <g id="text_13">
      <!-- −600 -->
      <g transform="translate(23.132812 240.432927) scale(0.1 -0.1)">
       <defs>
        <path id="DejaVuSans-36" d="M 2113 2584 
Q 1688 2584 1439 2293 
Q 1191 2003 1191 1497 
Q 1191 994 1439 701 
Q 1688 409 2113 409 
Q 2538 409 2786 701 
Q 3034 994 3034 1497 
Q 3034 2003 2786 2293 
Q 2538 2584 2113 2584 
z
M 3366 4563 
L 3366 3988 
Q 3128 4100 2886 4159 
Q 2644 4219 2406 4219 
Q 1781 4219 1451 3797 
Q 1122 3375 1075 2522 
Q 1259 2794 1537 2939 
Q 1816 3084 2150 3084 
Q 2853 3084 3261 2657 
Q 3669 2231 3669 1497 
Q 3669 778 3244 343 
Q 2819 -91 2113 -91 
Q 1303 -91 875 529 
Q 447 1150 447 2328 
Q 447 3434 972 4092 
Q 1497 4750 2381 4750 
Q 2619 4750 2861 4703 
Q 3103 4656 3366 4563 
z
" transform="scale(0.015625)"/>
       </defs>
       <use xlink:href="#DejaVuSans-2212"/>
       <use xlink:href="#DejaVuSans-36" x="83.789062"/>
       <use xlink:href="#DejaVuSans-30" x="147.412109"/>
       <use xlink:href="#DejaVuSans-30" x="211.035156"/>
      </g>
     </g>
    </g>
    <g id="ytick_4">
     <g id="line2d_13">
      <g>
       <use xlink:href="#m4fdd09475b" x="57.6" y="205.340425" style="stroke: #000000; stroke-width: 0.8"/>
      </g>
     </g>
     <g id="text_14">
      <!-- −500 -->
      <g transform="translate(23.132812 209.139644) scale(0.1 -0.1)">
       <use xlink:href="#DejaVuSans-2212"/>
       <use xlink:href="#DejaVuSans-35" x="83.789062"/>
       <use xlink:href="#DejaVuSans-30" x="147.412109"/>
       <use xlink:href="#DejaVuSans-30" x="211.035156"/>
      </g>
     </g>
    </g>
    <g id="ytick_5">
     <g id="line2d_14">
      <g>
       <use xlink:href="#m4fdd09475b" x="57.6" y="174.047142" style="stroke: #000000; stroke-width: 0.8"/>
      </g>
     </g>
     <g id="text_15">
      <!-- −400 -->
      <g transform="translate(23.132812 177.84636) scale(0.1 -0.1)">
       <use xlink:href="#DejaVuSans-2212"/>
       <use xlink:href="#DejaVuSans-34" x="83.789062"/>
       <use xlink:href="#DejaVuSans-30" x="147.412109"/>
       <use xlink:href="#DejaVuSans-30" x="211.035156"/>
      </g>
     </g>
    </g>
    <g id="ytick_6">
     <g id="line2d_15">
      <g>
       <use xlink:href="#m4fdd09475b" x="57.6" y="142.753858" style="stroke: #000000; stroke-width: 0.8"/>
      </g>
     </g>
     <g id="text_16">
      <!-- −300 -->
      <g transform="translate(23.132812 146.553077) scale(0.1 -0.1)">
       <use xlink:href="#DejaVuSans-2212"/>
       <use xlink:href="#DejaVuSans-33" x="83.789062"/>
       <use xlink:href="#DejaVuSans-30" x="147.412109"/>
       <use xlink:href="#DejaVuSans-30" x="211.035156"/>
      </g>
     </g>
    </g>
    <g id="ytick_7">
     <g id="line2d_16">
      <g>
       <use xlink:href="#m4fdd09475b" x="57.6" y="111.460575" style="stroke: #000000; stroke-width: 0.8"/>
      </g>
     </g>
     <g id="text_17">
      <!-- −200 -->
      <g transform="translate(23.132812 115.259793) scale(0.1 -0.1)">
       <use xlink:href="#DejaVuSans-2212"/>
       <use xlink:href="#DejaVuSans-32" x="83.789062"/>
       <use xlink:href="#DejaVuSans-30" x="147.412109"/>
       <use xlink:href="#DejaVuSans-30" x="211.035156"/>
      </g>
     </g>
    </g>
    <g id="ytick_8">
     <g id="line2d_17">
      <g>
       <use xlink:href="#m4fdd09475b" x="57.6" y="80.167291" style="stroke: #000000; stroke-width: 0.8"/>
      </g>
     </g>
     <g id="text_18">
      <!-- −100 -->
      <g transform="translate(23.132812 83.96651) scale(0.1 -0.1)">
       <use xlink:href="#DejaVuSans-2212"/>
       <use xlink:href="#DejaVuSans-31" x="83.789062"/>
       <use xlink:href="#DejaVuSans-30" x="147.412109"/>
       <use xlink:href="#DejaVuSans-30" x="211.035156"/>
      </g>
     </g>
    </g>
    <g id="ytick_9">
     <g id="line2d_18">
      <g>
       <use xlink:href="#m4fdd09475b" x="57.6" y="48.874007" style="stroke: #000000; stroke-width: 0.8"/>
      </g>
     </g>
     <g id="text_19">
      <!-- 0 -->
      <g transform="translate(44.2375 52.673226) scale(0.1 -0.1)">
       <use xlink:href="#DejaVuSans-30"/>
      </g>
     </g>
    </g>
    <g id="text_20">
     <!-- Fitness -->
     <g transform="translate(15.805312 202.2355) rotate(-90) scale(0.16 -0.16)">
      <defs>
       <path id="DejaVuSans-46" d="M 628 4666 
L 3309 4666 
L 3309 4134 
L 1259 4134 
L 1259 2759 
L 3109 2759 
L 3109 2228 
L 1259 2228 
L 1259 0 
L 628 0 
L 628 4666 
z
" transform="scale(0.015625)"/>
       <path id="DejaVuSans-74" d="M 1172 4494 
L 1172 3500 
L 2356 3500 
L 2356 3053 
L 1172 3053 
L 1172 1153 
Q 1172 725 1289 603 
Q 1406 481 1766 481 
L 2356 481 
L 2356 0 
L 1766 0 
Q 1100 0 847 248 
Q 594 497 594 1153 
L 594 3053 
L 172 3053 
L 172 3500 
L 594 3500 
L 594 4494 
L 1172 4494 
z
" transform="scale(0.015625)"/>
       <path id="DejaVuSans-6e" d="M 3513 2113 
L 3513 0 
L 2938 0 
L 2938 2094 
Q 2938 2591 2744 2837 
Q 2550 3084 2163 3084 
Q 1697 3084 1428 2787 
Q 1159 2491 1159 1978 
L 1159 0 
L 581 0 
L 581 3500 
L 1159 3500 
L 1159 2956 
Q 1366 3272 1645 3428 
Q 1925 3584 2291 3584 
Q 2894 3584 3203 3211 
Q 3513 2838 3513 2113 
z
" transform="scale(0.015625)"/>
      </defs>
      <use xlink:href="#DejaVuSans-46"/>
      <use xlink:href="#DejaVuSans-69" x="50.269531"/>
      <use xlink:href="#DejaVuSans-74" x="78.052734"/>
      <use xlink:href="#DejaVuSans-6e" x="117.261719"/>
      <use xlink:href="#DejaVuSans-65" x="180.640625"/>
      <use xlink:href="#DejaVuSans-73" x="242.164062"/>
      <use xlink:href="#DejaVuSans-73" x="294.263672"/>
     </g>
    </g>
   </g>
   <g id="line2d_19">
    <path d="M 57.626784 295.488 
L 57.914266 295.012985 
L 58.897238 294.946244 
L 59.054371 291.455751 
L 59.182042 291.382732 
L 59.342746 288.107269 
L 59.509699 287.689482 
L 59.639155 287.662268 
L 59.752541 287.551406 
L 59.906995 287.509895 
L 60.621235 287.217967 
L 60.834614 285.989175 
L 60.983712 285.065193 
L 61.181021 284.808005 
L 61.330118 284.808005 
L 61.516714 272.749969 
L 61.872048 272.749969 
L 61.99079 270.917087 
L 62.095248 270.778435 
L 62.288093 258.972376 
L 62.61575 258.931876 
L 63.03001 258.887019 
L 63.15768 257.073129 
L 63.238925 256.953592 
L 63.361238 255.945362 
L 63.48623 253.478609 
L 63.603187 253.36975 
L 63.759427 253.16969 
L 64.198685 253.025311 
L 64.254931 252.888164 
L 64.415635 252.703087 
L 64.647763 252.594693 
L 64.879891 251.144051 
L 65.004883 250.779084 
L 65.053987 250.669183 
L 65.32897 249.72296 
L 65.515565 248.600008 
L 65.595917 248.436875 
L 65.716445 246.436675 
L 65.811082 246.310585 
L 65.994998 241.272642 
L 66.024461 241.183685 
L 66.206592 238.809782 
L 66.269088 238.699538 
L 66.393187 238.352987 
L 66.519965 235.772158 
L 66.649421 229.940507 
L 66.805661 223.518434 
L 66.898512 223.351322 
L 66.935117 222.837798 
L 67.125283 221.073896 
L 67.313664 219.479968 
L 67.494902 209.851658 
L 67.565434 209.556975 
L 67.747565 208.592014 
L 68.154682 208.433986 
L 68.326099 208.338068 
L 68.426986 208.31259 
L 68.554656 203.466181 
L 68.711789 199.42035 
L 68.762678 199.310107 
L 68.775178 198.937301 
L 69.047482 194.146772 
L 69.172474 194.060511 
L 69.380496 193.903222 
L 70.627738 193.791139 
L 70.737552 193.239946 
L 70.887542 191.856489 
L 71.145562 191.647987 
L 71.328586 191.538273 
L 71.473219 190.869741 
L 71.829446 188.679686 
L 72.427622 188.431363 
L 72.636538 181.666513 
L 72.778493 180.678675 
L 73.121328 180.492181 
L 73.46327 180.367966 
L 73.902528 180.31219 
L 74.095373 168.400088 
L 74.821219 168.28908 
L 75.632774 168.249939 
L 80.301226 168.139039 
L 80.626205 168.11511 
L 82.252886 168.109813 
L 82.454659 151.720603 
L 82.575187 151.066019 
L 82.624291 150.966389 
L 82.816243 148.702678 
L 83.459952 148.586232 
L 83.806358 148.561349 
L 84.230438 148.51667 
L 84.405427 136.599484 
L 84.924144 136.550208 
L 85.086634 131.348762 
L 85.09199 131.347753 
L 85.284835 117.357102 
L 85.417862 117.191934 
L 85.594637 116.846802 
L 86.620464 116.765878 
L 90.960365 116.726314 
L 91.129997 105.366538 
L 91.166602 105.250826 
L 91.336234 104.90885 
L 94.277117 104.845731 
L 94.45657 97.232221 
L 95.066352 96.979307 
L 95.235091 89.458355 
L 95.271696 89.376416 
L 95.453827 84.139113 
L 95.658278 83.992619 
L 95.847552 81.560555 
L 99.727661 81.395289 
L 99.828547 81.395289 
L 99.999072 69.564964 
L 100.697242 69.532923 
L 128.082096 69.452498 
L 128.237443 64.241658 
L 128.483856 64.152134 
L 128.668666 61.663536 
L 129.066854 61.627859 
L 138.276086 61.550556 
L 138.461789 56.493823 
L 138.572496 56.409755 
L 138.762662 53.927427 
L 140.383094 53.808491 
L 414.72 53.789414 
L 414.72 53.789414 
" clip-path="url(#p2978eef432)" style="fill: none; stroke: #0000ff; stroke-width: 1.5; stroke-linecap: square"/>
   </g>
   <g id="line2d_20">
    <path d="M 57.626784 295.488 
L 57.914266 295.012985 
L 58.897238 294.946244 
L 59.054371 291.455751 
L 59.182042 291.382732 
L 59.342746 288.107269 
L 59.509699 287.689482 
L 59.639155 287.662268 
L 59.752541 287.551406 
L 59.906995 287.509895 
L 60.621235 287.217967 
L 60.834614 285.989175 
L 60.983712 285.065193 
L 61.181021 284.808005 
L 61.330118 284.808005 
L 61.516714 272.749969 
L 61.872048 272.749969 
L 61.99079 270.917087 
L 62.095248 270.778435 
L 62.288093 258.972376 
L 62.61575 258.931876 
L 63.03001 258.887019 
L 63.15768 257.073129 
L 63.238925 256.953592 
L 63.361238 255.945362 
L 63.48623 253.478609 
L 63.603187 253.36975 
L 63.759427 253.16969 
L 64.198685 253.025311 
L 64.254931 252.888164 
L 64.415635 252.703087 
L 64.647763 252.594693 
L 64.879891 251.144051 
L 65.004883 250.779084 
L 65.053987 250.669183 
L 65.32897 249.72296 
L 65.515565 248.600008 
L 65.595917 248.436875 
L 65.716445 246.436675 
L 65.811082 246.310585 
L 65.994998 241.272642 
L 66.024461 241.183685 
L 66.206592 238.809782 
L 66.269088 238.699538 
L 66.393187 238.352987 
L 66.519965 235.772158 
L 66.649421 229.940507 
L 66.805661 223.518434 
L 66.898512 223.351322 
L 66.935117 222.837798 
L 67.125283 221.073896 
L 67.313664 219.479968 
L 67.494902 209.851658 
L 67.565434 209.556975 
L 67.747565 208.592014 
L 68.154682 208.433986 
L 68.326099 208.338068 
L 68.426986 208.31259 
L 68.554656 203.466181 
L 68.711789 199.42035 
L 68.762678 199.310107 
L 68.775178 198.937301 
L 69.047482 194.146772 
L 69.172474 194.060511 
L 69.380496 193.903222 
L 70.627738 193.791139 
L 70.737552 193.239946 
L 70.887542 191.856489 
L 71.145562 191.647987 
L 71.328586 191.538273 
L 71.473219 190.869741 
L 71.829446 188.679686 
L 72.427622 188.431363 
L 72.636538 181.666513 
L 72.778493 180.678675 
L 73.121328 180.492181 
L 73.46327 180.367966 
L 73.902528 180.31219 
L 74.095373 168.400088 
L 74.821219 168.28908 
L 75.632774 168.249939 
L 80.301226 168.139039 
L 80.626205 168.11511 
L 82.252886 168.109813 
L 82.454659 151.720603 
L 82.575187 151.066019 
L 82.624291 150.966389 
L 82.816243 148.702678 
L 83.459952 148.586232 
L 83.806358 148.561349 
L 84.230438 148.51667 
L 84.405427 136.599484 
L 84.924144 136.550208 
L 85.086634 131.348762 
L 85.09199 131.347753 
L 85.284835 117.357102 
L 85.417862 117.191934 
L 85.594637 116.846802 
L 86.620464 116.765878 
L 90.960365 116.726314 
L 91.129997 105.366538 
L 91.166602 105.250826 
L 91.336234 104.90885 
L 94.277117 104.845731 
L 94.45657 97.232221 
L 95.066352 96.979307 
L 95.235091 89.458355 
L 95.271696 89.376416 
L 95.453827 84.139113 
L 95.658278 83.992619 
L 95.847552 81.560555 
L 99.727661 81.395289 
L 99.828547 81.395289 
L 99.999072 69.564964 
L 100.697242 69.532923 
L 128.082096 69.452498 
L 128.237443 64.241658 
L 128.483856 64.152134 
L 128.668666 61.663536 
L 129.066854 61.627859 
L 138.276086 61.550556 
L 138.461789 56.493823 
L 138.572496 56.409755 
L 138.762662 53.927427 
L 140.383094 53.808491 
L 414.72 53.789414 
L 414.72 53.789414 
" clip-path="url(#p2978eef432)" style="fill: none; stroke: #ff0000; stroke-width: 1.5; stroke-linecap: square"/>
   </g>
   <g id="line2d_21">
    <path d="M 57.626784 295.488 
L 57.914266 295.012985 
L 58.897238 294.946244 
L 59.054371 291.455751 
L 59.182042 291.382732 
L 59.342746 288.107269 
L 59.509699 287.689482 
L 59.639155 287.662268 
L 59.752541 287.551406 
L 59.906995 287.509895 
L 60.621235 287.217967 
L 60.834614 285.989175 
L 60.983712 285.065193 
L 61.181021 284.808005 
L 61.330118 284.808005 
L 61.516714 272.749969 
L 61.872048 272.749969 
L 61.99079 270.917087 
L 62.095248 270.778435 
L 62.288093 258.972376 
L 62.61575 258.931876 
L 63.03001 258.887019 
L 63.15768 257.073129 
L 63.238925 256.953592 
L 63.361238 255.945362 
L 63.48623 253.478609 
L 63.603187 253.36975 
L 63.759427 253.16969 
L 64.198685 253.025311 
L 64.254931 252.888164 
L 64.415635 252.703087 
L 64.647763 252.594693 
L 64.879891 251.144051 
L 65.004883 250.779084 
L 65.053987 250.669183 
L 65.32897 249.72296 
L 65.515565 248.600008 
L 65.595917 248.436875 
L 65.716445 246.436675 
L 65.811082 246.310585 
L 65.994998 241.272642 
L 66.024461 241.183685 
L 66.206592 238.809782 
L 66.269088 238.699538 
L 66.393187 238.352987 
L 66.519965 235.772158 
L 66.649421 229.940507 
L 66.805661 223.518434 
L 66.898512 223.351322 
L 66.935117 222.837798 
L 67.125283 221.073896 
L 67.313664 219.479968 
L 67.494902 209.851658 
L 67.565434 209.556975 
L 67.747565 208.592014 
L 68.154682 208.433986 
L 68.326099 208.338068 
L 68.426986 208.31259 
L 68.554656 203.466181 
L 68.711789 199.42035 
L 68.762678 199.310107 
L 68.775178 198.937301 
L 69.047482 194.146772 
L 69.172474 194.060511 
L 69.380496 193.903222 
L 70.627738 193.791139 
L 70.737552 193.239946 
L 70.887542 191.856489 
L 71.145562 191.647987 
L 71.328586 191.538273 
L 71.473219 190.869741 
L 71.829446 188.679686 
L 72.427622 188.431363 
L 72.636538 181.666513 
L 72.778493 180.678675 
L 73.121328 180.492181 
L 73.46327 180.367966 
L 73.902528 180.31219 
L 74.095373 168.400088 
L 74.821219 168.28908 
L 75.632774 168.249939 
L 80.301226 168.139039 
L 80.626205 168.11511 
L 82.252886 168.109813 
L 82.454659 151.720603 
L 82.575187 151.066019 
L 82.624291 150.966389 
L 82.816243 148.702678 
L 83.459952 148.586232 
L 83.806358 148.561349 
L 84.230438 148.51667 
L 84.405427 136.599484 
L 84.924144 136.550208 
L 85.086634 131.348762 
L 85.09199 131.347753 
L 85.284835 117.357102 
L 85.417862 117.191934 
L 85.594637 116.846802 
L 86.620464 116.765878 
L 90.960365 116.726314 
L 91.129997 105.366538 
L 91.166602 105.250826 
L 91.336234 104.90885 
L 94.277117 104.845731 
L 94.45657 97.232221 
L 95.066352 96.979307 
L 95.235091 89.458355 
L 95.271696 89.376416 
L 95.453827 84.139113 
L 95.658278 83.992619 
L 95.847552 81.560555 
L 99.727661 81.395289 
L 99.828547 81.395289 
L 99.999072 69.564964 
L 100.697242 69.532923 
L 128.082096 69.452498 
L 128.237443 64.241658 
L 128.483856 64.152134 
L 128.668666 61.663536 
L 129.066854 61.627859 
L 138.276086 61.550556 
L 138.461789 56.493823 
L 138.572496 56.409755 
L 138.762662 53.927427 
L 140.383094 53.808491 
L 414.72 53.789414 
L 414.72 53.789414 
" clip-path="url(#p2978eef432)" style="fill: none; stroke: #008000; stroke-width: 1.5; stroke-linecap: square"/>
   </g>
   <g id="line2d_22">
    <path d="M 57.6 53.568 
L 414.72 53.568 
" clip-path="url(#p2978eef432)" style="fill: none; stroke-dasharray: 3.7,1.6; stroke-dashoffset: 0; stroke: #000000"/>
   </g>
   <g id="patch_3">
    <path d="M 57.6 307.584 
L 57.6 41.472 
" style="fill: none; stroke: #000000; stroke-width: 0.8; stroke-linejoin: miter; stroke-linecap: square"/>
   </g>
   <g id="patch_4">
    <path d="M 414.72 307.584 
L 414.72 41.472 
" style="fill: none; stroke: #000000; stroke-width: 0.8; stroke-linejoin: miter; stroke-linecap: square"/>
   </g>
   <g id="patch_5">
    <path d="M 57.6 307.584 
L 414.72 307.584 
" style="fill: none; stroke: #000000; stroke-width: 0.8; stroke-linejoin: miter; stroke-linecap: square"/>
   </g>
   <g id="patch_6">
    <path d="M 57.6 41.472 
L 414.72 41.472 
" style="fill: none; stroke: #000000; stroke-width: 0.8; stroke-linejoin: miter; stroke-linecap: square"/>
   </g>
   <g id="text_21">
    <!-- Effects of adding non-essential behaviors -->
    <g transform="translate(49.902187 35.472) scale(0.18 -0.18)">
     <defs>
      <path id="DejaVuSans-66" d="M 2375 4863 
L 2375 4384 
L 1825 4384 
Q 1516 4384 1395 4259 
Q 1275 4134 1275 3809 
L 1275 3500 
L 2222 3500 
L 2222 3053 
L 1275 3053 
L 1275 0 
L 697 0 
L 697 3053 
L 147 3053 
L 147 3500 
L 697 3500 
L 697 3744 
Q 697 4328 969 4595 
Q 1241 4863 1831 4863 
L 2375 4863 
z
" transform="scale(0.015625)"/>
      <path id="DejaVuSans-63" d="M 3122 3366 
L 3122 2828 
Q 2878 2963 2633 3030 
Q 2388 3097 2138 3097 
Q 1578 3097 1268 2742 
Q 959 2388 959 1747 
Q 959 1106 1268 751 
Q 1578 397 2138 397 
Q 2388 397 2633 464 
Q 2878 531 3122 666 
L 3122 134 
Q 2881 22 2623 -34 
Q 2366 -91 2075 -91 
Q 1284 -91 818 406 
Q 353 903 353 1747 
Q 353 2603 823 3093 
Q 1294 3584 2113 3584 
Q 2378 3584 2631 3529 
Q 2884 3475 3122 3366 
z
" transform="scale(0.015625)"/>
      <path id="DejaVuSans-20" transform="scale(0.015625)"/>
      <path id="DejaVuSans-61" d="M 2194 1759 
Q 1497 1759 1228 1600 
Q 959 1441 959 1056 
Q 959 750 1161 570 
Q 1363 391 1709 391 
Q 2188 391 2477 730 
Q 2766 1069 2766 1631 
L 2766 1759 
L 2194 1759 
z
M 3341 1997 
L 3341 0 
L 2766 0 
L 2766 531 
Q 2569 213 2275 61 
Q 1981 -91 1556 -91 
Q 1019 -91 701 211 
Q 384 513 384 1019 
Q 384 1609 779 1909 
Q 1175 2209 1959 2209 
L 2766 2209 
L 2766 2266 
Q 2766 2663 2505 2880 
Q 2244 3097 1772 3097 
Q 1472 3097 1187 3025 
Q 903 2953 641 2809 
L 641 3341 
Q 956 3463 1253 3523 
Q 1550 3584 1831 3584 
Q 2591 3584 2966 3190 
Q 3341 2797 3341 1997 
z
" transform="scale(0.015625)"/>
      <path id="DejaVuSans-67" d="M 2906 1791 
Q 2906 2416 2648 2759 
Q 2391 3103 1925 3103 
Q 1463 3103 1205 2759 
Q 947 2416 947 1791 
Q 947 1169 1205 825 
Q 1463 481 1925 481 
Q 2391 481 2648 825 
Q 2906 1169 2906 1791 
z
M 3481 434 
Q 3481 -459 3084 -895 
Q 2688 -1331 1869 -1331 
Q 1566 -1331 1297 -1286 
Q 1028 -1241 775 -1147 
L 775 -588 
Q 1028 -725 1275 -790 
Q 1522 -856 1778 -856 
Q 2344 -856 2625 -561 
Q 2906 -266 2906 331 
L 2906 616 
Q 2728 306 2450 153 
Q 2172 0 1784 0 
Q 1141 0 747 490 
Q 353 981 353 1791 
Q 353 2603 747 3093 
Q 1141 3584 1784 3584 
Q 2172 3584 2450 3431 
Q 2728 3278 2906 2969 
L 2906 3500 
L 3481 3500 
L 3481 434 
z
" transform="scale(0.015625)"/>
      <path id="DejaVuSans-2d" d="M 313 2009 
L 1997 2009 
L 1997 1497 
L 313 1497 
L 313 2009 
z
" transform="scale(0.015625)"/>
      <path id="DejaVuSans-6c" d="M 603 4863 
L 1178 4863 
L 1178 0 
L 603 0 
L 603 4863 
z
" transform="scale(0.015625)"/>
      <path id="DejaVuSans-62" d="M 3116 1747 
Q 3116 2381 2855 2742 
Q 2594 3103 2138 3103 
Q 1681 3103 1420 2742 
Q 1159 2381 1159 1747 
Q 1159 1113 1420 752 
Q 1681 391 2138 391 
Q 2594 391 2855 752 
Q 3116 1113 3116 1747 
z
M 1159 2969 
Q 1341 3281 1617 3432 
Q 1894 3584 2278 3584 
Q 2916 3584 3314 3078 
Q 3713 2572 3713 1747 
Q 3713 922 3314 415 
Q 2916 -91 2278 -91 
Q 1894 -91 1617 61 
Q 1341 213 1159 525 
L 1159 0 
L 581 0 
L 581 4863 
L 1159 4863 
L 1159 2969 
z
" transform="scale(0.015625)"/>
      <path id="DejaVuSans-68" d="M 3513 2113 
L 3513 0 
L 2938 0 
L 2938 2094 
Q 2938 2591 2744 2837 
Q 2550 3084 2163 3084 
Q 1697 3084 1428 2787 
Q 1159 2491 1159 1978 
L 1159 0 
L 581 0 
L 581 4863 
L 1159 4863 
L 1159 2956 
Q 1366 3272 1645 3428 
Q 1925 3584 2291 3584 
Q 2894 3584 3203 3211 
Q 3513 2838 3513 2113 
z
" transform="scale(0.015625)"/>
      <path id="DejaVuSans-76" d="M 191 3500 
L 800 3500 
L 1894 563 
L 2988 3500 
L 3597 3500 
L 2284 0 
L 1503 0 
L 191 3500 
z
" transform="scale(0.015625)"/>
      <path id="DejaVuSans-72" d="M 2631 2963 
Q 2534 3019 2420 3045 
Q 2306 3072 2169 3072 
Q 1681 3072 1420 2755 
Q 1159 2438 1159 1844 
L 1159 0 
L 581 0 
L 581 3500 
L 1159 3500 
L 1159 2956 
Q 1341 3275 1631 3429 
Q 1922 3584 2338 3584 
Q 2397 3584 2469 3576 
Q 2541 3569 2628 3553 
L 2631 2963 
z
" transform="scale(0.015625)"/>
     </defs>
     <use xlink:href="#DejaVuSans-45"/>
     <use xlink:href="#DejaVuSans-66" x="63.183594"/>
     <use xlink:href="#DejaVuSans-66" x="98.388672"/>
     <use xlink:href="#DejaVuSans-65" x="133.59375"/>
     <use xlink:href="#DejaVuSans-63" x="195.117188"/>
     <use xlink:href="#DejaVuSans-74" x="250.097656"/>
     <use xlink:href="#DejaVuSans-73" x="289.306641"/>
     <use xlink:href="#DejaVuSans-20" x="341.40625"/>
     <use xlink:href="#DejaVuSans-6f" x="373.193359"/>
     <use xlink:href="#DejaVuSans-66" x="434.375"/>
     <use xlink:href="#DejaVuSans-20" x="469.580078"/>
     <use xlink:href="#DejaVuSans-61" x="501.367188"/>
     <use xlink:href="#DejaVuSans-64" x="562.646484"/>
     <use xlink:href="#DejaVuSans-64" x="626.123047"/>
     <use xlink:href="#DejaVuSans-69" x="689.599609"/>
     <use xlink:href="#DejaVuSans-6e" x="717.382812"/>
     <use xlink:href="#DejaVuSans-67" x="780.761719"/>
     <use xlink:href="#DejaVuSans-20" x="844.238281"/>
     <use xlink:href="#DejaVuSans-6e" x="876.025391"/>
     <use xlink:href="#DejaVuSans-6f" x="939.404297"/>
     <use xlink:href="#DejaVuSans-6e" x="1000.585938"/>
     <use xlink:href="#DejaVuSans-2d" x="1063.964844"/>
     <use xlink:href="#DejaVuSans-65" x="1100.048828"/>
     <use xlink:href="#DejaVuSans-73" x="1161.572266"/>
     <use xlink:href="#DejaVuSans-73" x="1213.671875"/>
     <use xlink:href="#DejaVuSans-65" x="1265.771484"/>
     <use xlink:href="#DejaVuSans-6e" x="1327.294922"/>
     <use xlink:href="#DejaVuSans-74" x="1390.673828"/>
     <use xlink:href="#DejaVuSans-69" x="1429.882812"/>
     <use xlink:href="#DejaVuSans-61" x="1457.666016"/>
     <use xlink:href="#DejaVuSans-6c" x="1518.945312"/>
     <use xlink:href="#DejaVuSans-20" x="1546.728516"/>
     <use xlink:href="#DejaVuSans-62" x="1578.515625"/>
     <use xlink:href="#DejaVuSans-65" x="1641.992188"/>
     <use xlink:href="#DejaVuSans-68" x="1703.515625"/>
     <use xlink:href="#DejaVuSans-61" x="1766.894531"/>
     <use xlink:href="#DejaVuSans-76" x="1828.173828"/>
     <use xlink:href="#DejaVuSans-69" x="1887.353516"/>
     <use xlink:href="#DejaVuSans-6f" x="1915.136719"/>
     <use xlink:href="#DejaVuSans-72" x="1976.318359"/>
     <use xlink:href="#DejaVuSans-73" x="2017.431641"/>
    </g>
   </g>
   <g id="legend_1">
    <g id="patch_7">
     <path d="M 135.915 299.584 
L 403.52 299.584 
Q 406.72 299.584 406.72 296.384 
L 406.72 227.529 
Q 406.72 224.329 403.52 224.329 
L 135.915 224.329 
Q 132.715 224.329 132.715 227.529 
L 132.715 296.384 
Q 132.715 299.584 135.915 299.584 
z
" style="fill: #ffffff; opacity: 0.8; stroke: #cccccc; stroke-linejoin: miter"/>
    </g>
    <g id="line2d_23">
     <path d="M 139.115 237.2865 
L 155.115 237.2865 
L 171.115 237.2865 
" style="fill: none; stroke: #0000ff; stroke-width: 1.5; stroke-linecap: square"/>
    </g>
    <g id="text_22">
     <!-- Necessary behaviors -->
     <g transform="translate(183.915 242.8865) scale(0.16 -0.16)">
      <defs>
       <path id="DejaVuSans-4e" d="M 628 4666 
L 1478 4666 
L 3547 763 
L 3547 4666 
L 4159 4666 
L 4159 0 
L 3309 0 
L 1241 3903 
L 1241 0 
L 628 0 
L 628 4666 
z
" transform="scale(0.015625)"/>
       <path id="DejaVuSans-79" d="M 2059 -325 
Q 1816 -950 1584 -1140 
Q 1353 -1331 966 -1331 
L 506 -1331 
L 506 -850 
L 844 -850 
Q 1081 -850 1212 -737 
Q 1344 -625 1503 -206 
L 1606 56 
L 191 3500 
L 800 3500 
L 1894 763 
L 2988 3500 
L 3597 3500 
L 2059 -325 
z
" transform="scale(0.015625)"/>
      </defs>
      <use xlink:href="#DejaVuSans-4e"/>
      <use xlink:href="#DejaVuSans-65" x="74.804688"/>
      <use xlink:href="#DejaVuSans-63" x="136.328125"/>
      <use xlink:href="#DejaVuSans-65" x="191.308594"/>
      <use xlink:href="#DejaVuSans-73" x="252.832031"/>
      <use xlink:href="#DejaVuSans-73" x="304.931641"/>
      <use xlink:href="#DejaVuSans-61" x="357.03125"/>
      <use xlink:href="#DejaVuSans-72" x="418.310547"/>
      <use xlink:href="#DejaVuSans-79" x="459.423828"/>
      <use xlink:href="#DejaVuSans-20" x="518.603516"/>
      <use xlink:href="#DejaVuSans-62" x="550.390625"/>
      <use xlink:href="#DejaVuSans-65" x="613.867188"/>
      <use xlink:href="#DejaVuSans-68" x="675.390625"/>
      <use xlink:href="#DejaVuSans-61" x="738.769531"/>
      <use xlink:href="#DejaVuSans-76" x="800.048828"/>
      <use xlink:href="#DejaVuSans-69" x="859.228516"/>
      <use xlink:href="#DejaVuSans-6f" x="887.011719"/>
      <use xlink:href="#DejaVuSans-72" x="948.193359"/>
      <use xlink:href="#DejaVuSans-73" x="989.306641"/>
     </g>
    </g>
    <g id="line2d_24">
     <path d="M 139.115 260.7715 
L 155.115 260.7715 
L 171.115 260.7715 
" style="fill: none; stroke: #ff0000; stroke-width: 1.5; stroke-linecap: square"/>
    </g>
    <g id="text_23">
     <!-- 7 non-essential behaviors -->
     <g transform="translate(183.915 266.3715) scale(0.16 -0.16)">
      <use xlink:href="#DejaVuSans-37"/>
      <use xlink:href="#DejaVuSans-20" x="63.623047"/>
      <use xlink:href="#DejaVuSans-6e" x="95.410156"/>
      <use xlink:href="#DejaVuSans-6f" x="158.789062"/>
      <use xlink:href="#DejaVuSans-6e" x="219.970703"/>
      <use xlink:href="#DejaVuSans-2d" x="283.349609"/>
      <use xlink:href="#DejaVuSans-65" x="319.433594"/>
      <use xlink:href="#DejaVuSans-73" x="380.957031"/>
      <use xlink:href="#DejaVuSans-73" x="433.056641"/>
      <use xlink:href="#DejaVuSans-65" x="485.15625"/>
      <use xlink:href="#DejaVuSans-6e" x="546.679688"/>
      <use xlink:href="#DejaVuSans-74" x="610.058594"/>
      <use xlink:href="#DejaVuSans-69" x="649.267578"/>
      <use xlink:href="#DejaVuSans-61" x="677.050781"/>
      <use xlink:href="#DejaVuSans-6c" x="738.330078"/>
      <use xlink:href="#DejaVuSans-20" x="766.113281"/>
      <use xlink:href="#DejaVuSans-62" x="797.900391"/>
      <use xlink:href="#DejaVuSans-65" x="861.376953"/>
      <use xlink:href="#DejaVuSans-68" x="922.900391"/>
      <use xlink:href="#DejaVuSans-61" x="986.279297"/>
      <use xlink:href="#DejaVuSans-76" x="1047.558594"/>
      <use xlink:href="#DejaVuSans-69" x="1106.738281"/>
      <use xlink:href="#DejaVuSans-6f" x="1134.521484"/>
      <use xlink:href="#DejaVuSans-72" x="1195.703125"/>
      <use xlink:href="#DejaVuSans-73" x="1236.816406"/>
     </g>
    </g>
    <g id="line2d_25">
     <path d="M 139.115 284.2565 
L 155.115 284.2565 
L 171.115 284.2565 
" style="fill: none; stroke: #008000; stroke-width: 1.5; stroke-linecap: square"/>
    </g>
    <g id="text_24">
     <!-- 14 non-essential behaviors -->
     <g transform="translate(183.915 289.8565) scale(0.16 -0.16)">
      <use xlink:href="#DejaVuSans-31"/>
      <use xlink:href="#DejaVuSans-34" x="63.623047"/>
      <use xlink:href="#DejaVuSans-20" x="127.246094"/>
      <use xlink:href="#DejaVuSans-6e" x="159.033203"/>
      <use xlink:href="#DejaVuSans-6f" x="222.412109"/>
      <use xlink:href="#DejaVuSans-6e" x="283.59375"/>
      <use xlink:href="#DejaVuSans-2d" x="346.972656"/>
      <use xlink:href="#DejaVuSans-65" x="383.056641"/>
      <use xlink:href="#DejaVuSans-73" x="444.580078"/>
      <use xlink:href="#DejaVuSans-73" x="496.679688"/>
      <use xlink:href="#DejaVuSans-65" x="548.779297"/>
      <use xlink:href="#DejaVuSans-6e" x="610.302734"/>
      <use xlink:href="#DejaVuSans-74" x="673.681641"/>
      <use xlink:href="#DejaVuSans-69" x="712.890625"/>
      <use xlink:href="#DejaVuSans-61" x="740.673828"/>
      <use xlink:href="#DejaVuSans-6c" x="801.953125"/>
      <use xlink:href="#DejaVuSans-20" x="829.736328"/>
      <use xlink:href="#DejaVuSans-62" x="861.523438"/>
      <use xlink:href="#DejaVuSans-65" x="925"/>
      <use xlink:href="#DejaVuSans-68" x="986.523438"/>
      <use xlink:href="#DejaVuSans-61" x="1049.902344"/>
      <use xlink:href="#DejaVuSans-76" x="1111.181641"/>
      <use xlink:href="#DejaVuSans-69" x="1170.361328"/>
      <use xlink:href="#DejaVuSans-6f" x="1198.144531"/>
      <use xlink:href="#DejaVuSans-72" x="1259.326172"/>
      <use xlink:href="#DejaVuSans-73" x="1300.439453"/>
     </g>
    </g>
   </g>
  </g>
 </g>
 <defs>
  <clipPath id="p2978eef432">
   <rect x="57.6" y="41.472" width="357.12" height="266.112"/>
  </clipPath>
 </defs>
</svg>
