<?xml version="1.0" encoding="utf-8" standalone="no"?>
<!DOCTYPE svg PUBLIC "-//W3C//DTD SVG 1.1//EN"
  "http://www.w3.org/Graphics/SVG/1.1/DTD/svg11.dtd">
<svg xmlns:xlink="http://www.w3.org/1999/xlink" width="460.8pt" height="345.6pt" viewBox="0 0 460.8 345.6" xmlns="http://www.w3.org/2000/svg" version="1.1">
 <metadata>
  <rdf:RDF xmlns:dc="http://purl.org/dc/elements/1.1/" xmlns:cc="http://creativecommons.org/ns#" xmlns:rdf="http://www.w3.org/1999/02/22-rdf-syntax-ns#">
   <cc:Work>
    <dc:type rdf:resource="http://purl.org/dc/dcmitype/StillImage"/>
    <dc:date>2024-10-12T17:35:37.672949</dc:date>
    <dc:format>image/svg+xml</dc:format>
    <dc:creator>
     <cc:Agent>
      <dc:title>Matplotlib v3.9.2, https://matplotlib.org/</dc:title>
     </cc:Agent>
    </dc:creator>
   </cc:Work>
  </rdf:RDF>
 </metadata>
 <defs>
  <style type="text/css">*{stroke-linejoin: round; stroke-linecap: butt}</style>
 </defs>
 <g id="figure_1">
  <g id="patch_1">
   <path d="M 0 345.6 
L 460.8 345.6 
L 460.8 0 
L 0 0 
z
" style="fill: #ffffff"/>
  </g>
  <g id="axes_1">
   <g id="patch_2">
    <path d="M 57.6 307.584 
L 414.72 307.584 
L 414.72 41.472 
L 57.6 41.472 
z
" style="fill: #ffffff"/>
   </g>
   <g id="matplotlib.axis_1">
    <g id="xtick_1">
     <g id="line2d_1">
      <defs>
       <path id="m884b222c48" d="M 0 0 
L 0 3.5 
" style="stroke: #000000; stroke-width: 0.8"/>
      </defs>
      <g>
       <use xlink:href="#m884b222c48" x="57.6" y="307.584" style="stroke: #000000; stroke-width: 0.8"/>
      </g>
     </g>
     <g id="text_1">
      <!-- 0 -->
      <g transform="translate(54.41875 322.182437) scale(0.1 -0.1)">
       <defs>
        <path id="DejaVuSans-30" d="M 2034 4250 
Q 1547 4250 1301 3770 
Q 1056 3291 1056 2328 
Q 1056 1369 1301 889 
Q 1547 409 2034 409 
Q 2525 409 2770 889 
Q 3016 1369 3016 2328 
Q 3016 3291 2770 3770 
Q 2525 4250 2034 4250 
z
M 2034 4750 
Q 2819 4750 3233 4129 
Q 3647 3509 3647 2328 
Q 3647 1150 3233 529 
Q 2819 -91 2034 -91 
Q 1250 -91 836 529 
Q 422 1150 422 2328 
Q 422 3509 836 4129 
Q 1250 4750 2034 4750 
z
" transform="scale(0.015625)"/>
       </defs>
       <use xlink:href="#DejaVuSans-30"/>
      </g>
     </g>
    </g>
    <g id="xtick_2">
     <g id="line2d_2">
      <g>
       <use xlink:href="#m884b222c48" x="102.24" y="307.584" style="stroke: #000000; stroke-width: 0.8"/>
      </g>
     </g>
     <g id="text_2">
      <!-- 50000 -->
      <g transform="translate(86.33375 322.182437) scale(0.1 -0.1)">
       <defs>
        <path id="DejaVuSans-35" d="M 691 4666 
L 3169 4666 
L 3169 4134 
L 1269 4134 
L 1269 2991 
Q 1406 3038 1543 3061 
Q 1681 3084 1819 3084 
Q 2600 3084 3056 2656 
Q 3513 2228 3513 1497 
Q 3513 744 3044 326 
Q 2575 -91 1722 -91 
Q 1428 -91 1123 -41 
Q 819 9 494 109 
L 494 744 
Q 775 591 1075 516 
Q 1375 441 1709 441 
Q 2250 441 2565 725 
Q 2881 1009 2881 1497 
Q 2881 1984 2565 2268 
Q 2250 2553 1709 2553 
Q 1456 2553 1204 2497 
Q 953 2441 691 2322 
L 691 4666 
z
" transform="scale(0.015625)"/>
       </defs>
       <use xlink:href="#DejaVuSans-35"/>
       <use xlink:href="#DejaVuSans-30" x="63.623047"/>
       <use xlink:href="#DejaVuSans-30" x="127.246094"/>
       <use xlink:href="#DejaVuSans-30" x="190.869141"/>
       <use xlink:href="#DejaVuSans-30" x="254.492188"/>
      </g>
     </g>
    </g>
    <g id="xtick_3">
     <g id="line2d_3">
      <g>
       <use xlink:href="#m884b222c48" x="146.88" y="307.584" style="stroke: #000000; stroke-width: 0.8"/>
      </g>
     </g>
     <g id="text_3">
      <!-- 100000 -->
      <g transform="translate(127.7925 322.182437) scale(0.1 -0.1)">
       <defs>
        <path id="DejaVuSans-31" d="M 794 531 
L 1825 531 
L 1825 4091 
L 703 3866 
L 703 4441 
L 1819 4666 
L 2450 4666 
L 2450 531 
L 3481 531 
L 3481 0 
L 794 0 
L 794 531 
z
" transform="scale(0.015625)"/>
       </defs>
       <use xlink:href="#DejaVuSans-31"/>
       <use xlink:href="#DejaVuSans-30" x="63.623047"/>
       <use xlink:href="#DejaVuSans-30" x="127.246094"/>
       <use xlink:href="#DejaVuSans-30" x="190.869141"/>
       <use xlink:href="#DejaVuSans-30" x="254.492188"/>
       <use xlink:href="#DejaVuSans-30" x="318.115234"/>
      </g>
     </g>
    </g>
    <g id="xtick_4">
     <g id="line2d_4">
      <g>
       <use xlink:href="#m884b222c48" x="191.52" y="307.584" style="stroke: #000000; stroke-width: 0.8"/>
      </g>
     </g>
     <g id="text_4">
      <!-- 150000 -->
      <g transform="translate(172.4325 322.182437) scale(0.1 -0.1)">
       <use xlink:href="#DejaVuSans-31"/>
       <use xlink:href="#DejaVuSans-35" x="63.623047"/>
       <use xlink:href="#DejaVuSans-30" x="127.246094"/>
       <use xlink:href="#DejaVuSans-30" x="190.869141"/>
       <use xlink:href="#DejaVuSans-30" x="254.492188"/>
       <use xlink:href="#DejaVuSans-30" x="318.115234"/>
      </g>
     </g>
    </g>
    <g id="xtick_5">
     <g id="line2d_5">
      <g>
       <use xlink:href="#m884b222c48" x="236.16" y="307.584" style="stroke: #000000; stroke-width: 0.8"/>
      </g>
     </g>
     <g id="text_5">
      <!-- 200000 -->
      <g transform="translate(217.0725 322.182437) scale(0.1 -0.1)">
       <defs>
        <path id="DejaVuSans-32" d="M 1228 531 
L 3431 531 
L 3431 0 
L 469 0 
L 469 531 
Q 828 903 1448 1529 
Q 2069 2156 2228 2338 
Q 2531 2678 2651 2914 
Q 2772 3150 2772 3378 
Q 2772 3750 2511 3984 
Q 2250 4219 1831 4219 
Q 1534 4219 1204 4116 
Q 875 4013 500 3803 
L 500 4441 
Q 881 4594 1212 4672 
Q 1544 4750 1819 4750 
Q 2544 4750 2975 4387 
Q 3406 4025 3406 3419 
Q 3406 3131 3298 2873 
Q 3191 2616 2906 2266 
Q 2828 2175 2409 1742 
Q 1991 1309 1228 531 
z
" transform="scale(0.015625)"/>
       </defs>
       <use xlink:href="#DejaVuSans-32"/>
       <use xlink:href="#DejaVuSans-30" x="63.623047"/>
       <use xlink:href="#DejaVuSans-30" x="127.246094"/>
       <use xlink:href="#DejaVuSans-30" x="190.869141"/>
       <use xlink:href="#DejaVuSans-30" x="254.492188"/>
       <use xlink:href="#DejaVuSans-30" x="318.115234"/>
      </g>
     </g>
    </g>
    <g id="xtick_6">
     <g id="line2d_6">
      <g>
       <use xlink:href="#m884b222c48" x="280.8" y="307.584" style="stroke: #000000; stroke-width: 0.8"/>
      </g>
     </g>
     <g id="text_6">
      <!-- 250000 -->
      <g transform="translate(261.7125 322.182437) scale(0.1 -0.1)">
       <use xlink:href="#DejaVuSans-32"/>
       <use xlink:href="#DejaVuSans-35" x="63.623047"/>
       <use xlink:href="#DejaVuSans-30" x="127.246094"/>
       <use xlink:href="#DejaVuSans-30" x="190.869141"/>
       <use xlink:href="#DejaVuSans-30" x="254.492188"/>
       <use xlink:href="#DejaVuSans-30" x="318.115234"/>
      </g>
     </g>
    </g>
    <g id="xtick_7">
     <g id="line2d_7">
      <g>
       <use xlink:href="#m884b222c48" x="325.44" y="307.584" style="stroke: #000000; stroke-width: 0.8"/>
      </g>
     </g>
     <g id="text_7">
      <!-- 300000 -->
      <g transform="translate(306.3525 322.182437) scale(0.1 -0.1)">
       <defs>
        <path id="DejaVuSans-33" d="M 2597 2516 
Q 3050 2419 3304 2112 
Q 3559 1806 3559 1356 
Q 3559 666 3084 287 
Q 2609 -91 1734 -91 
Q 1441 -91 1130 -33 
Q 819 25 488 141 
L 488 750 
Q 750 597 1062 519 
Q 1375 441 1716 441 
Q 2309 441 2620 675 
Q 2931 909 2931 1356 
Q 2931 1769 2642 2001 
Q 2353 2234 1838 2234 
L 1294 2234 
L 1294 2753 
L 1863 2753 
Q 2328 2753 2575 2939 
Q 2822 3125 2822 3475 
Q 2822 3834 2567 4026 
Q 2313 4219 1838 4219 
Q 1578 4219 1281 4162 
Q 984 4106 628 3988 
L 628 4550 
Q 988 4650 1302 4700 
Q 1616 4750 1894 4750 
Q 2613 4750 3031 4423 
Q 3450 4097 3450 3541 
Q 3450 3153 3228 2886 
Q 3006 2619 2597 2516 
z
" transform="scale(0.015625)"/>
       </defs>
       <use xlink:href="#DejaVuSans-33"/>
       <use xlink:href="#DejaVuSans-30" x="63.623047"/>
       <use xlink:href="#DejaVuSans-30" x="127.246094"/>
       <use xlink:href="#DejaVuSans-30" x="190.869141"/>
       <use xlink:href="#DejaVuSans-30" x="254.492188"/>
       <use xlink:href="#DejaVuSans-30" x="318.115234"/>
      </g>
     </g>
    </g>
    <g id="xtick_8">
     <g id="line2d_8">
      <g>
       <use xlink:href="#m884b222c48" x="370.08" y="307.584" style="stroke: #000000; stroke-width: 0.8"/>
      </g>
     </g>
     <g id="text_8">
      <!-- 350000 -->
      <g transform="translate(350.9925 322.182437) scale(0.1 -0.1)">
       <use xlink:href="#DejaVuSans-33"/>
       <use xlink:href="#DejaVuSans-35" x="63.623047"/>
       <use xlink:href="#DejaVuSans-30" x="127.246094"/>
       <use xlink:href="#DejaVuSans-30" x="190.869141"/>
       <use xlink:href="#DejaVuSans-30" x="254.492188"/>
       <use xlink:href="#DejaVuSans-30" x="318.115234"/>
      </g>
     </g>
    </g>
    <g id="xtick_9">
     <g id="line2d_9">
      <g>
       <use xlink:href="#m884b222c48" x="414.72" y="307.584" style="stroke: #000000; stroke-width: 0.8"/>
      </g>
     </g>
     <g id="text_9">
      <!-- 400000 -->
      <g transform="translate(395.6325 322.182437) scale(0.1 -0.1)">
       <defs>
        <path id="DejaVuSans-34" d="M 2419 4116 
L 825 1625 
L 2419 1625 
L 2419 4116 
z
M 2253 4666 
L 3047 4666 
L 3047 1625 
L 3713 1625 
L 3713 1100 
L 3047 1100 
L 3047 0 
L 2419 0 
L 2419 1100 
L 313 1100 
L 313 1709 
L 2253 4666 
z
" transform="scale(0.015625)"/>
       </defs>
       <use xlink:href="#DejaVuSans-34"/>
       <use xlink:href="#DejaVuSans-30" x="63.623047"/>
       <use xlink:href="#DejaVuSans-30" x="127.246094"/>
       <use xlink:href="#DejaVuSans-30" x="190.869141"/>
       <use xlink:href="#DejaVuSans-30" x="254.492188"/>
       <use xlink:href="#DejaVuSans-30" x="318.115234"/>
      </g>
     </g>
    </g>
    <g id="text_10">
     <!-- Episodes -->
     <g transform="translate(200.5725 340.419625) scale(0.16 -0.16)">
      <defs>
       <path id="DejaVuSans-45" d="M 628 4666 
L 3578 4666 
L 3578 4134 
L 1259 4134 
L 1259 2753 
L 3481 2753 
L 3481 2222 
L 1259 2222 
L 1259 531 
L 3634 531 
L 3634 0 
L 628 0 
L 628 4666 
z
" transform="scale(0.015625)"/>
       <path id="DejaVuSans-70" d="M 1159 525 
L 1159 -1331 
L 581 -1331 
L 581 3500 
L 1159 3500 
L 1159 2969 
Q 1341 3281 1617 3432 
Q 1894 3584 2278 3584 
Q 2916 3584 3314 3078 
Q 3713 2572 3713 1747 
Q 3713 922 3314 415 
Q 2916 -91 2278 -91 
Q 1894 -91 1617 61 
Q 1341 213 1159 525 
z
M 3116 1747 
Q 3116 2381 2855 2742 
Q 2594 3103 2138 3103 
Q 1681 3103 1420 2742 
Q 1159 2381 1159 1747 
Q 1159 1113 1420 752 
Q 1681 391 2138 391 
Q 2594 391 2855 752 
Q 3116 1113 3116 1747 
z
" transform="scale(0.015625)"/>
       <path id="DejaVuSans-69" d="M 603 3500 
L 1178 3500 
L 1178 0 
L 603 0 
L 603 3500 
z
M 603 4863 
L 1178 4863 
L 1178 4134 
L 603 4134 
L 603 4863 
z
" transform="scale(0.015625)"/>
       <path id="DejaVuSans-73" d="M 2834 3397 
L 2834 2853 
Q 2591 2978 2328 3040 
Q 2066 3103 1784 3103 
Q 1356 3103 1142 2972 
Q 928 2841 928 2578 
Q 928 2378 1081 2264 
Q 1234 2150 1697 2047 
L 1894 2003 
Q 2506 1872 2764 1633 
Q 3022 1394 3022 966 
Q 3022 478 2636 193 
Q 2250 -91 1575 -91 
Q 1294 -91 989 -36 
Q 684 19 347 128 
L 347 722 
Q 666 556 975 473 
Q 1284 391 1588 391 
Q 1994 391 2212 530 
Q 2431 669 2431 922 
Q 2431 1156 2273 1281 
Q 2116 1406 1581 1522 
L 1381 1569 
Q 847 1681 609 1914 
Q 372 2147 372 2553 
Q 372 3047 722 3315 
Q 1072 3584 1716 3584 
Q 2034 3584 2315 3537 
Q 2597 3491 2834 3397 
z
" transform="scale(0.015625)"/>
       <path id="DejaVuSans-6f" d="M 1959 3097 
Q 1497 3097 1228 2736 
Q 959 2375 959 1747 
Q 959 1119 1226 758 
Q 1494 397 1959 397 
Q 2419 397 2687 759 
Q 2956 1122 2956 1747 
Q 2956 2369 2687 2733 
Q 2419 3097 1959 3097 
z
M 1959 3584 
Q 2709 3584 3137 3096 
Q 3566 2609 3566 1747 
Q 3566 888 3137 398 
Q 2709 -91 1959 -91 
Q 1206 -91 779 398 
Q 353 888 353 1747 
Q 353 2609 779 3096 
Q 1206 3584 1959 3584 
z
" transform="scale(0.015625)"/>
       <path id="DejaVuSans-64" d="M 2906 2969 
L 2906 4863 
L 3481 4863 
L 3481 0 
L 2906 0 
L 2906 525 
Q 2725 213 2448 61 
Q 2172 -91 1784 -91 
Q 1150 -91 751 415 
Q 353 922 353 1747 
Q 353 2572 751 3078 
Q 1150 3584 1784 3584 
Q 2172 3584 2448 3432 
Q 2725 3281 2906 2969 
z
M 947 1747 
Q 947 1113 1208 752 
Q 1469 391 1925 391 
Q 2381 391 2643 752 
Q 2906 1113 2906 1747 
Q 2906 2381 2643 2742 
Q 2381 3103 1925 3103 
Q 1469 3103 1208 2742 
Q 947 2381 947 1747 
z
" transform="scale(0.015625)"/>
       <path id="DejaVuSans-65" d="M 3597 1894 
L 3597 1613 
L 953 1613 
Q 991 1019 1311 708 
Q 1631 397 2203 397 
Q 2534 397 2845 478 
Q 3156 559 3463 722 
L 3463 178 
Q 3153 47 2828 -22 
Q 2503 -91 2169 -91 
Q 1331 -91 842 396 
Q 353 884 353 1716 
Q 353 2575 817 3079 
Q 1281 3584 2069 3584 
Q 2775 3584 3186 3129 
Q 3597 2675 3597 1894 
z
M 3022 2063 
Q 3016 2534 2758 2815 
Q 2500 3097 2075 3097 
Q 1594 3097 1305 2825 
Q 1016 2553 972 2059 
L 3022 2063 
z
" transform="scale(0.015625)"/>
      </defs>
      <use xlink:href="#DejaVuSans-45"/>
      <use xlink:href="#DejaVuSans-70" x="63.183594"/>
      <use xlink:href="#DejaVuSans-69" x="126.660156"/>
      <use xlink:href="#DejaVuSans-73" x="154.443359"/>
      <use xlink:href="#DejaVuSans-6f" x="206.542969"/>
      <use xlink:href="#DejaVuSans-64" x="267.724609"/>
      <use xlink:href="#DejaVuSans-65" x="331.201172"/>
      <use xlink:href="#DejaVuSans-73" x="392.724609"/>
     </g>
    </g>
   </g>
   <g id="matplotlib.axis_2">
    <g id="ytick_1">
     <g id="line2d_10">
      <defs>
       <path id="m8e169a2aef" d="M 0 0 
L -3.5 0 
" style="stroke: #000000; stroke-width: 0.8"/>
      </defs>
      <g>
       <use xlink:href="#m8e169a2aef" x="57.6" y="299.175827" style="stroke: #000000; stroke-width: 0.8"/>
      </g>
     </g>
     <g id="text_11">
      <!-- −800 -->
      <g transform="translate(23.132812 302.975045) scale(0.1 -0.1)">
       <defs>
        <path id="DejaVuSans-2212" d="M 678 2272 
L 4684 2272 
L 4684 1741 
L 678 1741 
L 678 2272 
z
" transform="scale(0.015625)"/>
        <path id="DejaVuSans-38" d="M 2034 2216 
Q 1584 2216 1326 1975 
Q 1069 1734 1069 1313 
Q 1069 891 1326 650 
Q 1584 409 2034 409 
Q 2484 409 2743 651 
Q 3003 894 3003 1313 
Q 3003 1734 2745 1975 
Q 2488 2216 2034 2216 
z
M 1403 2484 
Q 997 2584 770 2862 
Q 544 3141 544 3541 
Q 544 4100 942 4425 
Q 1341 4750 2034 4750 
Q 2731 4750 3128 4425 
Q 3525 4100 3525 3541 
Q 3525 3141 3298 2862 
Q 3072 2584 2669 2484 
Q 3125 2378 3379 2068 
Q 3634 1759 3634 1313 
Q 3634 634 3220 271 
Q 2806 -91 2034 -91 
Q 1263 -91 848 271 
Q 434 634 434 1313 
Q 434 1759 690 2068 
Q 947 2378 1403 2484 
z
M 1172 3481 
Q 1172 3119 1398 2916 
Q 1625 2713 2034 2713 
Q 2441 2713 2670 2916 
Q 2900 3119 2900 3481 
Q 2900 3844 2670 4047 
Q 2441 4250 2034 4250 
Q 1625 4250 1398 4047 
Q 1172 3844 1172 3481 
z
" transform="scale(0.015625)"/>
       </defs>
       <use xlink:href="#DejaVuSans-2212"/>
       <use xlink:href="#DejaVuSans-38" x="83.789062"/>
       <use xlink:href="#DejaVuSans-30" x="147.412109"/>
       <use xlink:href="#DejaVuSans-30" x="211.035156"/>
      </g>
     </g>
    </g>
    <g id="ytick_2">
     <g id="line2d_11">
      <g>
       <use xlink:href="#m8e169a2aef" x="57.6" y="267.888205" style="stroke: #000000; stroke-width: 0.8"/>
      </g>
     </g>
     <g id="text_12">
      <!-- −700 -->
      <g transform="translate(23.132812 271.687424) scale(0.1 -0.1)">
       <defs>
        <path id="DejaVuSans-37" d="M 525 4666 
L 3525 4666 
L 3525 4397 
L 1831 0 
L 1172 0 
L 2766 4134 
L 525 4134 
L 525 4666 
z
" transform="scale(0.015625)"/>
       </defs>
       <use xlink:href="#DejaVuSans-2212"/>
       <use xlink:href="#DejaVuSans-37" x="83.789062"/>
       <use xlink:href="#DejaVuSans-30" x="147.412109"/>
       <use xlink:href="#DejaVuSans-30" x="211.035156"/>
      </g>
     </g>
    </g>
    <g id="ytick_3">
     <g id="line2d_12">
      <g>
       <use xlink:href="#m8e169a2aef" x="57.6" y="236.600584" style="stroke: #000000; stroke-width: 0.8"/>
      </g>
     </g>
     <g id="text_13">
      <!-- −600 -->
      <g transform="translate(23.132812 240.399803) scale(0.1 -0.1)">
       <defs>
        <path id="DejaVuSans-36" d="M 2113 2584 
Q 1688 2584 1439 2293 
Q 1191 2003 1191 1497 
Q 1191 994 1439 701 
Q 1688 409 2113 409 
Q 2538 409 2786 701 
Q 3034 994 3034 1497 
Q 3034 2003 2786 2293 
Q 2538 2584 2113 2584 
z
M 3366 4563 
L 3366 3988 
Q 3128 4100 2886 4159 
Q 2644 4219 2406 4219 
Q 1781 4219 1451 3797 
Q 1122 3375 1075 2522 
Q 1259 2794 1537 2939 
Q 1816 3084 2150 3084 
Q 2853 3084 3261 2657 
Q 3669 2231 3669 1497 
Q 3669 778 3244 343 
Q 2819 -91 2113 -91 
Q 1303 -91 875 529 
Q 447 1150 447 2328 
Q 447 3434 972 4092 
Q 1497 4750 2381 4750 
Q 2619 4750 2861 4703 
Q 3103 4656 3366 4563 
z
" transform="scale(0.015625)"/>
       </defs>
       <use xlink:href="#DejaVuSans-2212"/>
       <use xlink:href="#DejaVuSans-36" x="83.789062"/>
       <use xlink:href="#DejaVuSans-30" x="147.412109"/>
       <use xlink:href="#DejaVuSans-30" x="211.035156"/>
      </g>
     </g>
    </g>
    <g id="ytick_4">
     <g id="line2d_13">
      <g>
       <use xlink:href="#m8e169a2aef" x="57.6" y="205.312963" style="stroke: #000000; stroke-width: 0.8"/>
      </g>
     </g>
     <g id="text_14">
      <!-- −500 -->
      <g transform="translate(23.132812 209.112182) scale(0.1 -0.1)">
       <use xlink:href="#DejaVuSans-2212"/>
       <use xlink:href="#DejaVuSans-35" x="83.789062"/>
       <use xlink:href="#DejaVuSans-30" x="147.412109"/>
       <use xlink:href="#DejaVuSans-30" x="211.035156"/>
      </g>
     </g>
    </g>
    <g id="ytick_5">
     <g id="line2d_14">
      <g>
       <use xlink:href="#m8e169a2aef" x="57.6" y="174.025342" style="stroke: #000000; stroke-width: 0.8"/>
      </g>
     </g>
     <g id="text_15">
      <!-- −400 -->
      <g transform="translate(23.132812 177.82456) scale(0.1 -0.1)">
       <use xlink:href="#DejaVuSans-2212"/>
       <use xlink:href="#DejaVuSans-34" x="83.789062"/>
       <use xlink:href="#DejaVuSans-30" x="147.412109"/>
       <use xlink:href="#DejaVuSans-30" x="211.035156"/>
      </g>
     </g>
    </g>
    <g id="ytick_6">
     <g id="line2d_15">
      <g>
       <use xlink:href="#m8e169a2aef" x="57.6" y="142.73772" style="stroke: #000000; stroke-width: 0.8"/>
      </g>
     </g>
     <g id="text_16">
      <!-- −300 -->
      <g transform="translate(23.132812 146.536939) scale(0.1 -0.1)">
       <use xlink:href="#DejaVuSans-2212"/>
       <use xlink:href="#DejaVuSans-33" x="83.789062"/>
       <use xlink:href="#DejaVuSans-30" x="147.412109"/>
       <use xlink:href="#DejaVuSans-30" x="211.035156"/>
      </g>
     </g>
    </g>
    <g id="ytick_7">
     <g id="line2d_16">
      <g>
       <use xlink:href="#m8e169a2aef" x="57.6" y="111.450099" style="stroke: #000000; stroke-width: 0.8"/>
      </g>
     </g>
     <g id="text_17">
      <!-- −200 -->
      <g transform="translate(23.132812 115.249318) scale(0.1 -0.1)">
       <use xlink:href="#DejaVuSans-2212"/>
       <use xlink:href="#DejaVuSans-32" x="83.789062"/>
       <use xlink:href="#DejaVuSans-30" x="147.412109"/>
       <use xlink:href="#DejaVuSans-30" x="211.035156"/>
      </g>
     </g>
    </g>
    <g id="ytick_8">
     <g id="line2d_17">
      <g>
       <use xlink:href="#m8e169a2aef" x="57.6" y="80.162478" style="stroke: #000000; stroke-width: 0.8"/>
      </g>
     </g>
     <g id="text_18">
      <!-- −100 -->
      <g transform="translate(23.132812 83.961697) scale(0.1 -0.1)">
       <use xlink:href="#DejaVuSans-2212"/>
       <use xlink:href="#DejaVuSans-31" x="83.789062"/>
       <use xlink:href="#DejaVuSans-30" x="147.412109"/>
       <use xlink:href="#DejaVuSans-30" x="211.035156"/>
      </g>
     </g>
    </g>
    <g id="ytick_9">
     <g id="line2d_18">
      <g>
       <use xlink:href="#m8e169a2aef" x="57.6" y="48.874857" style="stroke: #000000; stroke-width: 0.8"/>
      </g>
     </g>
     <g id="text_19">
      <!-- 0 -->
      <g transform="translate(44.2375 52.674076) scale(0.1 -0.1)">
       <use xlink:href="#DejaVuSans-30"/>
      </g>
     </g>
    </g>
    <g id="text_20">
     <!-- Fitness -->
     <g transform="translate(15.805312 202.2355) rotate(-90) scale(0.16 -0.16)">
      <defs>
       <path id="DejaVuSans-46" d="M 628 4666 
L 3309 4666 
L 3309 4134 
L 1259 4134 
L 1259 2759 
L 3109 2759 
L 3109 2228 
L 1259 2228 
L 1259 0 
L 628 0 
L 628 4666 
z
" transform="scale(0.015625)"/>
       <path id="DejaVuSans-74" d="M 1172 4494 
L 1172 3500 
L 2356 3500 
L 2356 3053 
L 1172 3053 
L 1172 1153 
Q 1172 725 1289 603 
Q 1406 481 1766 481 
L 2356 481 
L 2356 0 
L 1766 0 
Q 1100 0 847 248 
Q 594 497 594 1153 
L 594 3053 
L 172 3053 
L 172 3500 
L 594 3500 
L 594 4494 
L 1172 4494 
z
" transform="scale(0.015625)"/>
       <path id="DejaVuSans-6e" d="M 3513 2113 
L 3513 0 
L 2938 0 
L 2938 2094 
Q 2938 2591 2744 2837 
Q 2550 3084 2163 3084 
Q 1697 3084 1428 2787 
Q 1159 2491 1159 1978 
L 1159 0 
L 581 0 
L 581 3500 
L 1159 3500 
L 1159 2956 
Q 1366 3272 1645 3428 
Q 1925 3584 2291 3584 
Q 2894 3584 3203 3211 
Q 3513 2838 3513 2113 
z
" transform="scale(0.015625)"/>
      </defs>
      <use xlink:href="#DejaVuSans-46"/>
      <use xlink:href="#DejaVuSans-69" x="50.269531"/>
      <use xlink:href="#DejaVuSans-74" x="78.052734"/>
      <use xlink:href="#DejaVuSans-6e" x="117.261719"/>
      <use xlink:href="#DejaVuSans-65" x="180.640625"/>
      <use xlink:href="#DejaVuSans-73" x="242.164062"/>
      <use xlink:href="#DejaVuSans-73" x="294.263672"/>
     </g>
    </g>
   </g>
   <g id="line2d_19">
    <path d="M 57.626784 295.444226 
L 57.914266 294.969297 
L 58.897238 294.902568 
L 59.054371 291.412707 
L 59.182042 291.339701 
L 59.342746 288.064831 
L 59.509699 287.647119 
L 59.639155 287.619911 
L 59.752541 287.509068 
L 59.906995 287.467565 
L 60.621235 287.175689 
L 60.834614 285.94712 
L 60.983712 285.023305 
L 61.181021 284.766164 
L 61.330118 284.766164 
L 61.516714 272.710309 
L 61.872048 272.710309 
L 61.99079 270.877759 
L 62.095248 270.739133 
L 62.288093 258.935209 
L 62.61575 258.894717 
L 63.03001 258.849868 
L 63.15768 257.036306 
L 63.238925 256.916791 
L 63.361238 255.908744 
L 63.48623 253.442437 
L 63.603187 253.333597 
L 63.759427 253.133574 
L 64.198685 252.989221 
L 64.254931 252.852098 
L 64.415635 252.667054 
L 64.647763 252.55868 
L 64.879891 251.108301 
L 65.004883 250.7434 
L 65.053987 250.633519 
L 65.32897 249.687467 
L 65.515565 248.564719 
L 65.595917 248.401614 
L 65.716445 246.401777 
L 65.811082 246.27571 
L 65.994998 241.238678 
L 66.024461 241.149737 
L 66.206592 238.776263 
L 66.269088 238.666039 
L 66.393187 238.319551 
L 66.519965 235.73919 
L 66.649421 229.908593 
L 66.805661 223.487682 
L 66.898512 223.320601 
L 66.935117 222.80717 
L 67.125283 221.043587 
L 67.313664 219.449947 
L 67.494902 209.823379 
L 67.565434 209.528749 
L 67.747565 208.563964 
L 68.154682 208.405965 
L 68.326099 208.310063 
L 68.426986 208.28459 
L 68.554656 203.439058 
L 68.711789 199.393959 
L 68.762678 199.283736 
L 68.775178 198.910998 
L 69.047482 194.121335 
L 69.172474 194.03509 
L 69.380496 193.877829 
L 70.627738 193.765766 
L 70.737552 193.214673 
L 70.887542 191.831466 
L 71.145562 191.623002 
L 71.328586 191.513308 
L 71.473219 190.844897 
L 71.829446 188.655239 
L 72.427622 188.406961 
L 72.636538 181.643335 
L 72.778493 180.655675 
L 73.121328 180.469215 
L 73.46327 180.345022 
L 73.902528 180.289256 
L 74.095373 168.37931 
L 74.821219 168.268322 
L 75.632774 168.229189 
L 80.301226 168.118308 
L 80.626205 168.094384 
L 82.252886 168.089087 
L 82.454659 151.702843 
L 82.575187 151.048377 
L 82.624291 150.948765 
L 82.816243 148.685464 
L 83.459952 148.569039 
L 83.806358 148.544161 
L 84.230438 148.499489 
L 84.405427 136.58446 
L 84.924144 136.535193 
L 85.086634 131.334688 
L 85.09199 131.333679 
L 85.284835 117.34556 
L 85.417862 117.180422 
L 85.594637 116.835353 
L 86.621357 116.754442 
L 90.960365 116.714886 
L 91.129997 105.357166 
L 91.166602 105.241475 
L 91.336234 104.899561 
L 94.277117 104.836453 
L 94.45657 97.22432 
L 95.066352 96.971452 
L 95.235091 89.451861 
L 95.271696 89.369936 
L 95.453827 84.133581 
L 95.658278 83.987114 
L 95.847552 81.55549 
L 99.727661 81.390254 
L 99.828547 81.390254 
L 99.999072 69.562069 
L 100.698134 69.530034 
L 128.082096 69.449623 
L 128.237443 64.239726 
L 128.483856 64.150219 
L 128.668666 61.662072 
L 129.066854 61.6264 
L 138.276086 61.549111 
L 138.461789 56.493294 
L 138.572496 56.40924 
L 138.762662 53.927362 
L 140.383987 53.808448 
L 414.72 53.749309 
L 414.72 53.749309 
" clip-path="url(#pd47f0e05d4)" style="fill: none; stroke: #0000ff; stroke-width: 1.5; stroke-linecap: square"/>
   </g>
   <g id="line2d_20">
    <path d="M 57.626784 295.444226 
L 57.914266 294.969297 
L 58.897238 294.902568 
L 59.054371 291.429045 
L 59.182042 291.339111 
L 59.319533 289.591201 
L 59.995382 289.56269 
L 60.231082 289.457321 
L 60.565882 287.577187 
L 60.685517 287.467028 
L 60.824794 287.46458 
L 61.117632 287.353667 
L 61.44529 287.294045 
L 61.872048 287.294045 
L 61.99079 285.492075 
L 62.037216 285.384224 
L 62.183635 284.261212 
L 62.322912 283.631229 
L 62.385408 283.521326 
L 62.60593 283.140019 
L 62.821094 283.02898 
L 62.961264 283.013117 
L 63.030902 282.91829 
L 63.15768 281.211404 
L 63.355882 281.211404 
L 63.477302 279.410085 
L 64.237075 279.301495 
L 64.37903 277.967378 
L 64.598659 274.761295 
L 64.765613 274.408976 
L 65.595917 274.392133 
L 65.715552 272.509434 
L 65.877149 272.39881 
L 65.886077 272.185642 
L 66.035174 270.4526 
L 66.185165 270.341665 
L 66.28248 270.186998 
L 66.486931 257.555684 
L 66.619958 257.267982 
L 66.806554 256.47897 
L 67.10832 256.287442 
L 67.276166 255.714854 
L 67.338662 255.598512 
L 67.544899 254.100927 
L 67.73953 253.942052 
L 67.885056 253.832443 
L 68.057366 253.730208 
L 68.426986 253.652544 
L 68.543942 251.844703 
L 68.912669 251.844677 
L 69.02784 250.012592 
L 69.187651 249.902893 
L 69.290323 249.337696 
L 69.495667 239.26878 
L 69.634944 234.547734 
L 69.656371 234.378161 
L 69.766186 232.12998 
L 69.93671 228.223462 
L 69.989386 228.056863 
L 70.326864 221.231427 
L 70.372397 220.962597 
L 70.528637 211.87919 
L 70.643808 211.530488 
L 70.771478 211.492309 
L 70.992893 200.184459 
L 71.106278 200.05758 
L 71.300016 199.221115 
L 71.933904 198.832231 
L 72.372269 196.765711 
L 72.521366 196.601708 
L 72.665107 196.579825 
L 72.814205 196.444237 
L 72.998122 196.439233 
L 73.240963 196.329626 
L 73.419523 196.244611 
L 73.740038 196.133856 
L 73.965024 196.0613 
L 74.251613 195.975732 
L 74.490883 188.265612 
L 74.491776 188.265612 
L 74.760509 164.982333 
L 74.937283 164.85356 
L 75.169411 164.699255 
L 75.934541 164.573758 
L 76.318445 164.463643 
L 76.509504 164.413898 
L 77.341594 164.314349 
L 77.534438 159.115847 
L 77.760317 158.976533 
L 77.811206 154.24549 
L 77.975482 144.588193 
L 79.536989 144.389485 
L 81.298483 144.35762 
L 82.710893 144.272335 
L 82.900166 136.724702 
L 83.068906 136.57343 
L 84.057235 136.531641 
L 84.226867 131.323234 
L 84.439354 131.220978 
L 84.483994 126.916311 
L 84.642019 117.139516 
L 84.729514 117.029424 
L 84.921466 116.899289 
L 85.253587 116.791415 
L 85.425898 111.74838 
L 85.442861 111.659298 
L 85.624099 109.331186 
L 85.883011 109.232882 
L 86.058893 97.36187 
L 86.584752 97.121397 
L 86.779382 92.138696 
L 86.835629 92.018695 
L 87.027581 89.541871 
L 87.312384 89.430901 
L 87.684682 89.294276 
L 87.862349 84.146101 
L 87.900739 84.010334 
L 88.084656 81.541423 
L 89.478317 81.407499 
L 92.812032 81.370685 
L 92.9772 76.178301 
L 93.05041 76.087632 
L 93.244147 73.653486 
L 100.507075 73.562305 
L 100.669565 61.766718 
L 100.949011 61.736865 
L 102.741754 61.67867 
L 102.930134 56.435294 
L 103.297968 56.35093 
L 103.488134 53.888649 
L 103.811328 53.863271 
L 171.490032 53.752308 
L 171.96143 53.750325 
L 414.72 53.725142 
L 414.72 53.725142 
" clip-path="url(#pd47f0e05d4)" style="fill: none; stroke: #ff0000; stroke-width: 1.5; stroke-linecap: square"/>
   </g>
   <g id="line2d_21">
    <path d="M 57.626784 295.444226 
L 57.914266 294.969297 
L 58.897238 294.902568 
L 59.054371 291.429045 
L 59.182042 291.339111 
L 59.319533 289.591201 
L 59.995382 289.56269 
L 60.231082 289.457321 
L 60.565882 287.577187 
L 60.685517 287.467028 
L 60.824794 287.46458 
L 61.117632 287.353667 
L 61.44529 287.294045 
L 61.872048 287.294045 
L 61.99079 285.492075 
L 62.037216 285.384224 
L 62.183635 284.261212 
L 62.322912 283.631229 
L 62.385408 283.521326 
L 62.60593 283.140019 
L 62.821094 283.02898 
L 62.961264 283.013117 
L 63.030902 282.91829 
L 63.15768 281.211404 
L 63.355882 281.211404 
L 63.477302 279.410085 
L 64.237075 279.301495 
L 64.37903 277.967378 
L 64.598659 274.761295 
L 64.765613 274.408976 
L 65.595917 274.392133 
L 65.715552 272.509434 
L 65.877149 272.39881 
L 65.886077 272.185642 
L 66.035174 270.4526 
L 66.185165 270.341665 
L 66.283373 270.146995 
L 66.536035 257.41786 
L 66.632458 257.145632 
L 66.804768 256.49769 
L 67.119926 256.153113 
L 67.272595 255.720681 
L 67.33777 255.616442 
L 67.546685 254.07933 
L 67.736851 253.929005 
L 67.891306 253.817934 
L 68.053795 253.750821 
L 68.426986 253.662084 
L 68.543942 251.860307 
L 68.912669 251.849978 
L 69.02784 250.017893 
L 69.187651 249.908194 
L 69.290323 249.342996 
L 69.495667 239.274081 
L 69.634944 234.553035 
L 69.656371 234.383462 
L 69.827789 233.767607 
L 69.912605 233.458891 
L 70.492925 204.246763 
L 70.77505 203.54345 
L 70.993786 192.464222 
L 71.099136 192.315097 
L 71.297338 191.485038 
L 71.916048 191.170834 
L 72.341914 188.941427 
L 73.003478 188.569568 
L 73.232035 188.4599 
L 73.41863 188.360104 
L 73.744502 188.249527 
L 73.956989 188.189865 
L 74.257862 188.179475 
L 74.448029 177.24165 
L 74.515882 177.13151 
L 74.533738 176.455026 
L 74.715869 164.572335 
L 74.868538 164.342963 
L 75.592598 164.200416 
L 77.789779 164.188282 
L 77.979053 152.291503 
L 78.987024 152.180407 
L 79.436995 152.178558 
L 80.377114 152.094523 
L 80.558352 147.218388 
L 80.597635 147.089053 
L 80.787802 144.701535 
L 80.955648 144.481395 
L 81.990403 144.392456 
L 82.645718 144.364056 
L 82.820707 136.625998 
L 84.46703 136.549852 
L 84.643805 124.74373 
L 84.765226 124.732229 
L 85.883011 124.662509 
L 86.058893 112.843815 
L 86.327626 112.762454 
L 86.521363 107.682366 
L 86.748134 107.58558 
L 86.9508 105.149452 
L 87.931094 104.797499 
L 88.188221 94.566706 
L 88.35696 94.466202 
L 88.629264 89.376685 
L 90.373795 89.265706 
L 90.941616 89.257681 
L 100.507075 89.228079 
L 100.669565 77.432491 
L 100.970438 77.39089 
L 101.938234 77.289089 
L 102.139114 69.59716 
L 108.011952 69.514804 
L 108.176227 64.31883 
L 108.308362 64.218243 
L 108.523526 61.749816 
L 109.474358 61.727392 
L 114.372259 61.672412 
L 114.549034 56.490829 
L 114.645456 56.400454 
L 114.831158 53.869944 
L 414.72 53.781546 
L 414.72 53.781546 
" clip-path="url(#pd47f0e05d4)" style="fill: none; stroke: #008000; stroke-width: 1.5; stroke-linecap: square"/>
   </g>
   <g id="line2d_22">
    <path d="M 57.626784 295.466184 
L 57.929443 294.990351 
L 57.968726 294.880033 
L 58.123181 293.182081 
L 58.603507 293.088917 
L 58.746355 291.41197 
L 58.959734 291.305065 
L 59.090976 289.563665 
L 59.180256 289.463436 
L 59.321318 287.761575 
L 60.380179 287.652228 
L 60.542669 285.579929 
L 60.74712 283.578599 
L 60.927466 282.060721 
L 61.114061 279.677908 
L 61.161379 279.365077 
L 61.304227 277.264448 
L 61.435469 277.154152 
L 61.548854 276.611473 
L 61.728307 275.063023 
L 61.86312 274.84723 
L 61.998826 274.792184 
L 62.061322 274.683251 
L 62.237203 273.257942 
L 62.517542 272.786425 
L 62.748778 272.393128 
L 62.945194 272.258493 
L 63.071078 272.256644 
L 63.204998 268.892238 
L 63.243389 268.888255 
L 63.363917 266.921724 
L 63.821923 266.034846 
L 64.342426 265.962286 
L 64.491523 264.268274 
L 64.57009 264.124785 
L 64.724544 263.343628 
L 64.963814 258.551816 
L 65.198621 238.14763 
L 65.323613 237.615511 
L 65.332541 237.469585 
L 65.537885 223.610418 
L 65.728051 223.358848 
L 65.912861 221.276564 
L 66.12624 220.622082 
L 66.33337 209.1852 
L 66.391402 208.901091 
L 66.525322 208.793419 
L 66.755664 208.683342 
L 66.950294 208.587106 
L 67.342234 208.473648 
L 67.531507 196.486792 
L 68.334134 196.375735 
L 68.549299 196.304648 
L 69.414422 196.286917 
L 69.603696 184.495406 
L 70.009027 184.38447 
L 70.58399 184.180207 
L 70.767014 179.008923 
L 70.801834 178.91074 
L 71.011642 169.557768 
L 71.15449 168.7008 
L 72.010685 168.566671 
L 73.968595 168.512278 
L 74.146262 156.640512 
L 74.94264 156.469152 
L 75.064954 154.815074 
L 75.44975 154.705099 
L 75.512246 153.865726 
L 75.670272 152.664131 
L 75.828298 152.525256 
L 76.061318 152.439397 
L 76.257734 144.894645 
L 76.646995 144.646971 
L 78.042442 144.595665 
L 78.221002 139.668818 
L 78.244214 139.568644 
L 78.422774 137.03574 
L 78.92185 136.954862 
L 79.561094 136.844031 
L 79.778045 136.73023 
L 80.022672 136.722905 
L 80.586922 136.65257 
L 80.777981 124.800719 
L 82.036829 124.515885 
L 82.203782 119.41446 
L 82.213603 119.290919 
L 82.39752 116.821132 
L 82.81535 116.763175 
L 83.255501 116.62176 
L 83.423347 109.168938 
L 83.81975 109.058161 
L 84.083126 109.008578 
L 88.472131 108.92429 
L 88.648013 101.270457 
L 88.773898 101.22377 
L 89.44439 101.172206 
L 91.097856 101.11467 
L 91.270166 95.962728 
L 91.298736 95.830735 
L 91.477296 93.581907 
L 92.475446 93.470965 
L 92.960237 93.406166 
L 93.961066 93.321419 
L 101.303453 93.273834 
L 101.482906 81.451118 
L 102.11233 81.355512 
L 123.207408 81.298113 
L 123.374362 69.573591 
L 124.214486 69.462629 
L 124.57607 69.434975 
L 129.323088 69.354536 
L 129.548074 61.795842 
L 129.734669 61.704971 
L 131.164934 61.59387 
L 131.79793 61.591938 
L 138.993898 61.590194 
L 139.155494 53.878216 
L 144.081072 53.767217 
L 144.593539 53.740549 
L 414.72 53.738455 
L 414.72 53.738455 
" clip-path="url(#pd47f0e05d4)" style="fill: none; stroke: #00bfbf; stroke-width: 1.5; stroke-linecap: square"/>
   </g>
   <g id="line2d_23">
    <path d="M 57.626784 295.488 
L 57.883018 295.053591 
L 58.187462 295.032554 
L 59.775754 294.946204 
L 59.904317 293.230904 
L 60.99889 293.230564 
L 61.123882 291.413495 
L 62.15953 291.321577 
L 62.286307 289.633024 
L 63.185357 289.626546 
L 63.308563 286.863908 
L 63.44784 286.137679 
L 63.504086 286.026689 
L 63.639792 285.995621 
L 63.721037 285.886407 
L 64.035302 285.353081 
L 64.137974 285.259596 
L 64.420992 281.648533 
L 64.449562 281.540239 
L 64.588838 279.837919 
L 64.762934 275.744461 
L 64.842394 275.609022 
L 65.020954 275.166095 
L 65.201299 275.065611 
L 65.28433 275.056064 
L 65.403965 273.246067 
L 65.476282 273.145933 
L 65.603059 271.299792 
L 65.872685 270.885098 
L 66.06553 259.172948 
L 66.134275 259.144141 
L 66.326227 247.171187 
L 66.353904 247.063713 
L 66.40033 242.676454 
L 66.524429 238.37874 
L 66.627101 238.176632 
L 66.816374 235.75814 
L 66.882442 235.642759 
L 66.926189 232.550772 
L 67.10832 220.374873 
L 67.285094 220.06589 
L 67.407408 219.954275 
L 67.480618 219.84048 
L 67.658285 218.057324 
L 67.777027 217.77563 
L 68.070758 216.89719 
L 68.218963 216.846287 
L 68.630544 216.735312 
L 68.75375 216.574824 
L 69.001949 204.926065 
L 69.081408 204.815805 
L 69.303715 204.630405 
L 69.535843 204.473769 
L 69.725117 199.717853 
L 69.83761 199.607006 
L 69.854573 199.387666 
L 70.413466 184.935762 
L 70.937539 184.71633 
L 71.113421 184.621249 
L 71.283946 183.020214 
L 71.653565 182.363599 
L 71.849088 182.241162 
L 71.901763 181.82882 
L 72.275846 170.901959 
L 72.728496 165.682304 
L 73.046333 165.5772 
L 73.098115 165.464258 
L 73.255248 165.313576 
L 73.482019 165.202565 
L 73.875744 165.109554 
L 73.980202 164.949191 
L 74.169475 159.23629 
L 74.257862 157.512482 
L 74.389104 157.027373 
L 74.730154 156.916357 
L 75.311366 156.815427 
L 75.807763 156.672626 
L 76.017571 144.859443 
L 76.305946 144.719784 
L 76.495219 139.499692 
L 76.702349 139.396454 
L 76.893408 137.07804 
L 77.055898 136.965286 
L 78.633475 136.85431 
L 79.032557 136.795318 
L 79.357536 136.795318 
L 79.531632 128.79741 
L 79.638768 128.408453 
L 79.826256 125.146757 
L 79.985174 125.015527 
L 80.399434 124.904591 
L 80.509248 124.880169 
L 80.694058 113.235241 
L 81.396691 113.090185 
L 81.593107 105.666207 
L 81.664531 105.559484 
L 81.844877 105.128293 
L 82.348416 105.080716 
L 82.535011 93.305178 
L 83.25193 93.19409 
L 83.456381 93.145436 
L 85.166986 92.904696 
L 85.355366 87.859811 
L 85.358045 87.783632 
L 85.52857 82.68821 
L 85.561603 82.518878 
L 85.856227 77.644503 
L 86.603501 77.524117 
L 87.302563 77.468874 
L 87.474874 72.197092 
L 87.498086 72.094541 
L 87.676646 70.534308 
L 87.822173 70.321637 
L 88.004304 69.845715 
L 90.065779 69.735484 
L 90.267552 69.615863 
L 124.940333 69.543754 
L 125.11175 62.570785 
L 125.281382 61.790907 
L 414.72 61.679874 
L 414.72 61.679874 
" clip-path="url(#pd47f0e05d4)" style="fill: none; stroke: #000000; stroke-width: 1.5; stroke-linecap: square"/>
   </g>
   <g id="line2d_24">
    <path d="M 57.6 53.568 
L 414.72 53.568 
" clip-path="url(#pd47f0e05d4)" style="fill: none; stroke-dasharray: 3.7,1.6; stroke-dashoffset: 0; stroke: #000000"/>
   </g>
   <g id="patch_3">
    <path d="M 57.6 307.584 
L 57.6 41.472 
" style="fill: none; stroke: #000000; stroke-width: 0.8; stroke-linejoin: miter; stroke-linecap: square"/>
   </g>
   <g id="patch_4">
    <path d="M 414.72 307.584 
L 414.72 41.472 
" style="fill: none; stroke: #000000; stroke-width: 0.8; stroke-linejoin: miter; stroke-linecap: square"/>
   </g>
   <g id="patch_5">
    <path d="M 57.6 307.584 
L 414.72 307.584 
" style="fill: none; stroke: #000000; stroke-width: 0.8; stroke-linejoin: miter; stroke-linecap: square"/>
   </g>
   <g id="patch_6">
    <path d="M 57.6 41.472 
L 414.72 41.472 
" style="fill: none; stroke: #000000; stroke-width: 0.8; stroke-linejoin: miter; stroke-linecap: square"/>
   </g>
   <g id="text_21">
    <!-- Impact of the failure probabilities -->
    <g transform="translate(86.307187 35.472) scale(0.18 -0.18)">
     <defs>
      <path id="DejaVuSans-49" d="M 628 4666 
L 1259 4666 
L 1259 0 
L 628 0 
L 628 4666 
z
" transform="scale(0.015625)"/>
      <path id="DejaVuSans-6d" d="M 3328 2828 
Q 3544 3216 3844 3400 
Q 4144 3584 4550 3584 
Q 5097 3584 5394 3201 
Q 5691 2819 5691 2113 
L 5691 0 
L 5113 0 
L 5113 2094 
Q 5113 2597 4934 2840 
Q 4756 3084 4391 3084 
Q 3944 3084 3684 2787 
Q 3425 2491 3425 1978 
L 3425 0 
L 2847 0 
L 2847 2094 
Q 2847 2600 2669 2842 
Q 2491 3084 2119 3084 
Q 1678 3084 1418 2786 
Q 1159 2488 1159 1978 
L 1159 0 
L 581 0 
L 581 3500 
L 1159 3500 
L 1159 2956 
Q 1356 3278 1631 3431 
Q 1906 3584 2284 3584 
Q 2666 3584 2933 3390 
Q 3200 3197 3328 2828 
z
" transform="scale(0.015625)"/>
      <path id="DejaVuSans-61" d="M 2194 1759 
Q 1497 1759 1228 1600 
Q 959 1441 959 1056 
Q 959 750 1161 570 
Q 1363 391 1709 391 
Q 2188 391 2477 730 
Q 2766 1069 2766 1631 
L 2766 1759 
L 2194 1759 
z
M 3341 1997 
L 3341 0 
L 2766 0 
L 2766 531 
Q 2569 213 2275 61 
Q 1981 -91 1556 -91 
Q 1019 -91 701 211 
Q 384 513 384 1019 
Q 384 1609 779 1909 
Q 1175 2209 1959 2209 
L 2766 2209 
L 2766 2266 
Q 2766 2663 2505 2880 
Q 2244 3097 1772 3097 
Q 1472 3097 1187 3025 
Q 903 2953 641 2809 
L 641 3341 
Q 956 3463 1253 3523 
Q 1550 3584 1831 3584 
Q 2591 3584 2966 3190 
Q 3341 2797 3341 1997 
z
" transform="scale(0.015625)"/>
      <path id="DejaVuSans-63" d="M 3122 3366 
L 3122 2828 
Q 2878 2963 2633 3030 
Q 2388 3097 2138 3097 
Q 1578 3097 1268 2742 
Q 959 2388 959 1747 
Q 959 1106 1268 751 
Q 1578 397 2138 397 
Q 2388 397 2633 464 
Q 2878 531 3122 666 
L 3122 134 
Q 2881 22 2623 -34 
Q 2366 -91 2075 -91 
Q 1284 -91 818 406 
Q 353 903 353 1747 
Q 353 2603 823 3093 
Q 1294 3584 2113 3584 
Q 2378 3584 2631 3529 
Q 2884 3475 3122 3366 
z
" transform="scale(0.015625)"/>
      <path id="DejaVuSans-20" transform="scale(0.015625)"/>
      <path id="DejaVuSans-66" d="M 2375 4863 
L 2375 4384 
L 1825 4384 
Q 1516 4384 1395 4259 
Q 1275 4134 1275 3809 
L 1275 3500 
L 2222 3500 
L 2222 3053 
L 1275 3053 
L 1275 0 
L 697 0 
L 697 3053 
L 147 3053 
L 147 3500 
L 697 3500 
L 697 3744 
Q 697 4328 969 4595 
Q 1241 4863 1831 4863 
L 2375 4863 
z
" transform="scale(0.015625)"/>
      <path id="DejaVuSans-68" d="M 3513 2113 
L 3513 0 
L 2938 0 
L 2938 2094 
Q 2938 2591 2744 2837 
Q 2550 3084 2163 3084 
Q 1697 3084 1428 2787 
Q 1159 2491 1159 1978 
L 1159 0 
L 581 0 
L 581 4863 
L 1159 4863 
L 1159 2956 
Q 1366 3272 1645 3428 
Q 1925 3584 2291 3584 
Q 2894 3584 3203 3211 
Q 3513 2838 3513 2113 
z
" transform="scale(0.015625)"/>
      <path id="DejaVuSans-6c" d="M 603 4863 
L 1178 4863 
L 1178 0 
L 603 0 
L 603 4863 
z
" transform="scale(0.015625)"/>
      <path id="DejaVuSans-75" d="M 544 1381 
L 544 3500 
L 1119 3500 
L 1119 1403 
Q 1119 906 1312 657 
Q 1506 409 1894 409 
Q 2359 409 2629 706 
Q 2900 1003 2900 1516 
L 2900 3500 
L 3475 3500 
L 3475 0 
L 2900 0 
L 2900 538 
Q 2691 219 2414 64 
Q 2138 -91 1772 -91 
Q 1169 -91 856 284 
Q 544 659 544 1381 
z
M 1991 3584 
L 1991 3584 
z
" transform="scale(0.015625)"/>
      <path id="DejaVuSans-72" d="M 2631 2963 
Q 2534 3019 2420 3045 
Q 2306 3072 2169 3072 
Q 1681 3072 1420 2755 
Q 1159 2438 1159 1844 
L 1159 0 
L 581 0 
L 581 3500 
L 1159 3500 
L 1159 2956 
Q 1341 3275 1631 3429 
Q 1922 3584 2338 3584 
Q 2397 3584 2469 3576 
Q 2541 3569 2628 3553 
L 2631 2963 
z
" transform="scale(0.015625)"/>
      <path id="DejaVuSans-62" d="M 3116 1747 
Q 3116 2381 2855 2742 
Q 2594 3103 2138 3103 
Q 1681 3103 1420 2742 
Q 1159 2381 1159 1747 
Q 1159 1113 1420 752 
Q 1681 391 2138 391 
Q 2594 391 2855 752 
Q 3116 1113 3116 1747 
z
M 1159 2969 
Q 1341 3281 1617 3432 
Q 1894 3584 2278 3584 
Q 2916 3584 3314 3078 
Q 3713 2572 3713 1747 
Q 3713 922 3314 415 
Q 2916 -91 2278 -91 
Q 1894 -91 1617 61 
Q 1341 213 1159 525 
L 1159 0 
L 581 0 
L 581 4863 
L 1159 4863 
L 1159 2969 
z
" transform="scale(0.015625)"/>
     </defs>
     <use xlink:href="#DejaVuSans-49"/>
     <use xlink:href="#DejaVuSans-6d" x="29.492188"/>
     <use xlink:href="#DejaVuSans-70" x="126.904297"/>
     <use xlink:href="#DejaVuSans-61" x="190.380859"/>
     <use xlink:href="#DejaVuSans-63" x="251.660156"/>
     <use xlink:href="#DejaVuSans-74" x="306.640625"/>
     <use xlink:href="#DejaVuSans-20" x="345.849609"/>
     <use xlink:href="#DejaVuSans-6f" x="377.636719"/>
     <use xlink:href="#DejaVuSans-66" x="438.818359"/>
     <use xlink:href="#DejaVuSans-20" x="474.023438"/>
     <use xlink:href="#DejaVuSans-74" x="505.810547"/>
     <use xlink:href="#DejaVuSans-68" x="545.019531"/>
     <use xlink:href="#DejaVuSans-65" x="608.398438"/>
     <use xlink:href="#DejaVuSans-20" x="669.921875"/>
     <use xlink:href="#DejaVuSans-66" x="701.708984"/>
     <use xlink:href="#DejaVuSans-61" x="736.914062"/>
     <use xlink:href="#DejaVuSans-69" x="798.193359"/>
     <use xlink:href="#DejaVuSans-6c" x="825.976562"/>
     <use xlink:href="#DejaVuSans-75" x="853.759766"/>
     <use xlink:href="#DejaVuSans-72" x="917.138672"/>
     <use xlink:href="#DejaVuSans-65" x="956.001953"/>
     <use xlink:href="#DejaVuSans-20" x="1017.525391"/>
     <use xlink:href="#DejaVuSans-70" x="1049.3125"/>
     <use xlink:href="#DejaVuSans-72" x="1112.789062"/>
     <use xlink:href="#DejaVuSans-6f" x="1151.652344"/>
     <use xlink:href="#DejaVuSans-62" x="1212.833984"/>
     <use xlink:href="#DejaVuSans-61" x="1276.310547"/>
     <use xlink:href="#DejaVuSans-62" x="1337.589844"/>
     <use xlink:href="#DejaVuSans-69" x="1401.066406"/>
     <use xlink:href="#DejaVuSans-6c" x="1428.849609"/>
     <use xlink:href="#DejaVuSans-69" x="1456.632812"/>
     <use xlink:href="#DejaVuSans-74" x="1484.416016"/>
     <use xlink:href="#DejaVuSans-69" x="1523.625"/>
     <use xlink:href="#DejaVuSans-65" x="1551.408203"/>
     <use xlink:href="#DejaVuSans-73" x="1612.931641"/>
    </g>
   </g>
   <g id="legend_1">
    <g id="patch_7">
     <path d="M 245.275 299.584 
L 403.52 299.584 
Q 406.72 299.584 406.72 296.384 
L 406.72 180.559 
Q 406.72 177.359 403.52 177.359 
L 245.275 177.359 
Q 242.075 177.359 242.075 180.559 
L 242.075 296.384 
Q 242.075 299.584 245.275 299.584 
z
" style="fill: #ffffff; opacity: 0.8; stroke: #cccccc; stroke-linejoin: miter"/>
    </g>
    <g id="line2d_25">
     <path d="M 248.475 190.3165 
L 264.475 190.3165 
L 280.475 190.3165 
" style="fill: none; stroke: #0000ff; stroke-width: 1.5; stroke-linecap: square"/>
    </g>
    <g id="text_22">
     <!-- Deterministic -->
     <g transform="translate(293.275 195.9165) scale(0.16 -0.16)">
      <defs>
       <path id="DejaVuSans-44" d="M 1259 4147 
L 1259 519 
L 2022 519 
Q 2988 519 3436 956 
Q 3884 1394 3884 2338 
Q 3884 3275 3436 3711 
Q 2988 4147 2022 4147 
L 1259 4147 
z
M 628 4666 
L 1925 4666 
Q 3281 4666 3915 4102 
Q 4550 3538 4550 2338 
Q 4550 1131 3912 565 
Q 3275 0 1925 0 
L 628 0 
L 628 4666 
z
" transform="scale(0.015625)"/>
      </defs>
      <use xlink:href="#DejaVuSans-44"/>
      <use xlink:href="#DejaVuSans-65" x="77.001953"/>
      <use xlink:href="#DejaVuSans-74" x="138.525391"/>
      <use xlink:href="#DejaVuSans-65" x="177.734375"/>
      <use xlink:href="#DejaVuSans-72" x="239.257812"/>
      <use xlink:href="#DejaVuSans-6d" x="278.621094"/>
      <use xlink:href="#DejaVuSans-69" x="376.033203"/>
      <use xlink:href="#DejaVuSans-6e" x="403.816406"/>
      <use xlink:href="#DejaVuSans-69" x="467.195312"/>
      <use xlink:href="#DejaVuSans-73" x="494.978516"/>
      <use xlink:href="#DejaVuSans-74" x="547.078125"/>
      <use xlink:href="#DejaVuSans-69" x="586.287109"/>
      <use xlink:href="#DejaVuSans-63" x="614.070312"/>
     </g>
    </g>
    <g id="line2d_26">
     <path d="M 248.475 213.8015 
L 264.475 213.8015 
L 280.475 213.8015 
" style="fill: none; stroke: #ff0000; stroke-width: 1.5; stroke-linecap: square"/>
    </g>
    <g id="text_23">
     <!-- Stochastic 1 -->
     <g transform="translate(293.275 219.4015) scale(0.16 -0.16)">
      <defs>
       <path id="DejaVuSans-53" d="M 3425 4513 
L 3425 3897 
Q 3066 4069 2747 4153 
Q 2428 4238 2131 4238 
Q 1616 4238 1336 4038 
Q 1056 3838 1056 3469 
Q 1056 3159 1242 3001 
Q 1428 2844 1947 2747 
L 2328 2669 
Q 3034 2534 3370 2195 
Q 3706 1856 3706 1288 
Q 3706 609 3251 259 
Q 2797 -91 1919 -91 
Q 1588 -91 1214 -16 
Q 841 59 441 206 
L 441 856 
Q 825 641 1194 531 
Q 1563 422 1919 422 
Q 2459 422 2753 634 
Q 3047 847 3047 1241 
Q 3047 1584 2836 1778 
Q 2625 1972 2144 2069 
L 1759 2144 
Q 1053 2284 737 2584 
Q 422 2884 422 3419 
Q 422 4038 858 4394 
Q 1294 4750 2059 4750 
Q 2388 4750 2728 4690 
Q 3069 4631 3425 4513 
z
" transform="scale(0.015625)"/>
      </defs>
      <use xlink:href="#DejaVuSans-53"/>
      <use xlink:href="#DejaVuSans-74" x="63.476562"/>
      <use xlink:href="#DejaVuSans-6f" x="102.685547"/>
      <use xlink:href="#DejaVuSans-63" x="163.867188"/>
      <use xlink:href="#DejaVuSans-68" x="218.847656"/>
      <use xlink:href="#DejaVuSans-61" x="282.226562"/>
      <use xlink:href="#DejaVuSans-73" x="343.505859"/>
      <use xlink:href="#DejaVuSans-74" x="395.605469"/>
      <use xlink:href="#DejaVuSans-69" x="434.814453"/>
      <use xlink:href="#DejaVuSans-63" x="462.597656"/>
      <use xlink:href="#DejaVuSans-20" x="517.578125"/>
      <use xlink:href="#DejaVuSans-31" x="549.365234"/>
     </g>
    </g>
    <g id="line2d_27">
     <path d="M 248.475 237.2865 
L 264.475 237.2865 
L 280.475 237.2865 
" style="fill: none; stroke: #008000; stroke-width: 1.5; stroke-linecap: square"/>
    </g>
    <g id="text_24">
     <!-- Stochastic 2 -->
     <g transform="translate(293.275 242.8865) scale(0.16 -0.16)">
      <use xlink:href="#DejaVuSans-53"/>
      <use xlink:href="#DejaVuSans-74" x="63.476562"/>
      <use xlink:href="#DejaVuSans-6f" x="102.685547"/>
      <use xlink:href="#DejaVuSans-63" x="163.867188"/>
      <use xlink:href="#DejaVuSans-68" x="218.847656"/>
      <use xlink:href="#DejaVuSans-61" x="282.226562"/>
      <use xlink:href="#DejaVuSans-73" x="343.505859"/>
      <use xlink:href="#DejaVuSans-74" x="395.605469"/>
      <use xlink:href="#DejaVuSans-69" x="434.814453"/>
      <use xlink:href="#DejaVuSans-63" x="462.597656"/>
      <use xlink:href="#DejaVuSans-20" x="517.578125"/>
      <use xlink:href="#DejaVuSans-32" x="549.365234"/>
     </g>
    </g>
    <g id="line2d_28">
     <path d="M 248.475 260.7715 
L 264.475 260.7715 
L 280.475 260.7715 
" style="fill: none; stroke: #00bfbf; stroke-width: 1.5; stroke-linecap: square"/>
    </g>
    <g id="text_25">
     <!-- Stochastic 3 -->
     <g transform="translate(293.275 266.3715) scale(0.16 -0.16)">
      <use xlink:href="#DejaVuSans-53"/>
      <use xlink:href="#DejaVuSans-74" x="63.476562"/>
      <use xlink:href="#DejaVuSans-6f" x="102.685547"/>
      <use xlink:href="#DejaVuSans-63" x="163.867188"/>
      <use xlink:href="#DejaVuSans-68" x="218.847656"/>
      <use xlink:href="#DejaVuSans-61" x="282.226562"/>
      <use xlink:href="#DejaVuSans-73" x="343.505859"/>
      <use xlink:href="#DejaVuSans-74" x="395.605469"/>
      <use xlink:href="#DejaVuSans-69" x="434.814453"/>
      <use xlink:href="#DejaVuSans-63" x="462.597656"/>
      <use xlink:href="#DejaVuSans-20" x="517.578125"/>
      <use xlink:href="#DejaVuSans-33" x="549.365234"/>
     </g>
    </g>
    <g id="line2d_29">
     <path d="M 248.475 284.2565 
L 264.475 284.2565 
L 280.475 284.2565 
" style="fill: none; stroke: #000000; stroke-width: 1.5; stroke-linecap: square"/>
    </g>
    <g id="text_26">
     <!-- Stochastic 4 -->
     <g transform="translate(293.275 289.8565) scale(0.16 -0.16)">
      <use xlink:href="#DejaVuSans-53"/>
      <use xlink:href="#DejaVuSans-74" x="63.476562"/>
      <use xlink:href="#DejaVuSans-6f" x="102.685547"/>
      <use xlink:href="#DejaVuSans-63" x="163.867188"/>
      <use xlink:href="#DejaVuSans-68" x="218.847656"/>
      <use xlink:href="#DejaVuSans-61" x="282.226562"/>
      <use xlink:href="#DejaVuSans-73" x="343.505859"/>
      <use xlink:href="#DejaVuSans-74" x="395.605469"/>
      <use xlink:href="#DejaVuSans-69" x="434.814453"/>
      <use xlink:href="#DejaVuSans-63" x="462.597656"/>
      <use xlink:href="#DejaVuSans-20" x="517.578125"/>
      <use xlink:href="#DejaVuSans-34" x="549.365234"/>
     </g>
    </g>
   </g>
  </g>
 </g>
 <defs>
  <clipPath id="pd47f0e05d4">
   <rect x="57.6" y="41.472" width="357.12" height="266.112"/>
  </clipPath>
 </defs>
</svg>
